<svg xmlns="http://www.w3.org/2000/svg" xmlns:xlink="http://www.w3.org/1999/xlink" width="1920" zoomAndPan="magnify" viewBox="0 0 1440 809.999993" height="1080" preserveAspectRatio="xMidYMid meet" version="1.0"><defs><clipPath id="02b21fe4a9"><path d="M 1129 264.515625 L 1371 264.515625 L 1371 488 L 1129 488 Z M 1129 264.515625 " clip-rule="nonzero"/></clipPath><clipPath id="79f183b416"><path d="M 1081 455 L 1249 455 L 1249 545.765625 L 1081 545.765625 Z M 1081 455 " clip-rule="nonzero"/></clipPath><clipPath id="eecf491493"><path d="M 1253 455 L 1421 455 L 1421 545.765625 L 1253 545.765625 Z M 1253 455 " clip-rule="nonzero"/></clipPath><clipPath id="3f0b74e9f5"><path d="M 1121 492 L 1229 492 L 1229 545.765625 L 1121 545.765625 Z M 1121 492 " clip-rule="nonzero"/></clipPath><clipPath id="0fda700e7a"><path d="M 1275 492 L 1382 492 L 1382 545.765625 L 1275 545.765625 Z M 1275 492 " clip-rule="nonzero"/></clipPath><clipPath id="663af7df24"><path d="M 1425 358 L 1439.855469 358 L 1439.855469 365 L 1425 365 Z M 1425 358 " clip-rule="nonzero"/></clipPath></defs><rect x="-144" width="1728" fill="#ffffff" y="-80.999999" height="971.999992" fill-opacity="1"/><rect x="-144" width="1728" fill="#ffffff" y="-80.999999" height="971.999992" fill-opacity="1"/><g clip-path="url(#02b21fe4a9)"><path fill="#999966" d="M 1362.417969 376.722656 L 1326.871094 302.296875 L 1326.871094 298.449219 C 1327.261719 298.054688 1327.652344 297.664062 1328.046875 297.273438 C 1332.507812 292.507812 1329.511719 288.300781 1322.832031 291.269531 C 1320.519531 292.28125 1328.175781 294.761719 1325.535156 296.488281 C 1313.21875 304.648438 1298.980469 302.070312 1286.371094 296.097656 C 1275.164062 290.8125 1264.800781 292.28125 1255.058594 299.425781 C 1251.996094 301.679688 1250.402344 300.828125 1250.660156 297.5 C 1250.660156 297.5 1250.695312 296.164062 1250.757812 293.519531 C 1258.351562 289.867188 1257.601562 279.816406 1249.164062 264.480469 C 1240.722656 279.816406 1240.039062 289.867188 1247.632812 293.519531 C 1247.695312 296.164062 1247.730469 297.5 1247.730469 297.5 C 1247.988281 300.828125 1246.394531 301.679688 1243.332031 299.425781 C 1233.589844 292.28125 1223.226562 290.8125 1212.019531 296.097656 C 1199.410156 302.035156 1185.171875 304.613281 1172.855469 296.488281 C 1170.214844 294.761719 1177.902344 292.28125 1175.558594 291.269531 C 1168.847656 288.300781 1165.847656 292.542969 1170.34375 297.273438 C 1170.800781 297.761719 1171.257812 298.21875 1171.746094 298.675781 L 1171.617188 298.9375 L 1171.324219 299.558594 L 1134.472656 376.722656 L 1132.125 376.722656 C 1130.527344 376.722656 1129.226562 378.027344 1129.226562 379.625 C 1129.226562 381.222656 1130.527344 382.527344 1132.125 382.527344 L 1133.625 382.527344 L 1133.625 383.050781 C 1133.625 395.710938 1143.984375 406.085938 1156.628906 406.085938 L 1188.949219 406.085938 C 1201.589844 406.085938 1211.953125 395.710938 1211.953125 383.050781 L 1211.953125 382.527344 L 1215.601562 382.527344 C 1217.199219 382.527344 1218.503906 381.222656 1218.503906 379.625 C 1218.503906 378.027344 1217.199219 376.722656 1215.601562 376.722656 L 1210.453125 376.722656 L 1174.90625 302.296875 L 1174.90625 301.125 C 1182.695312 306.472656 1193.21875 307.8125 1204.785156 304.320312 C 1221.011719 299.394531 1233.488281 299.164062 1243.429688 307.125 L 1243.429688 313.847656 C 1243.429688 315.640625 1244.242188 317.242188 1245.511719 318.285156 C 1246.164062 319.851562 1246.492188 320.863281 1246.425781 321.351562 L 1240.363281 321.351562 L 1240.363281 324.058594 C 1240.363281 325.5625 1241.570312 326.769531 1243.070312 326.769531 L 1244.925781 326.769531 L 1244.925781 429.871094 L 1236.457031 429.871094 L 1236.457031 437.703125 L 1241.734375 437.703125 C 1242.679688 452.484375 1233.980469 464.652344 1215.636719 474.148438 L 1207.164062 474.148438 L 1207.164062 480.902344 L 1197.324219 480.902344 L 1197.324219 487.65625 L 1301 487.65625 L 1301 480.902344 L 1291.160156 480.902344 L 1291.160156 474.148438 L 1281.90625 474.148438 C 1263.5625 464.621094 1254.863281 452.484375 1255.808594 437.703125 L 1261.871094 437.703125 L 1261.871094 429.871094 L 1253.398438 429.871094 L 1253.398438 326.769531 L 1255.253906 326.769531 C 1256.753906 326.769531 1257.960938 325.5625 1257.960938 324.058594 L 1257.960938 321.351562 L 1251.898438 321.351562 C 1251.867188 320.863281 1252.160156 319.851562 1252.8125 318.285156 C 1254.082031 317.207031 1254.898438 315.609375 1254.898438 313.847656 L 1254.898438 307.125 C 1264.800781 299.164062 1277.3125 299.394531 1293.539062 304.320312 C 1304.457031 307.617188 1314.425781 306.605469 1322.082031 302.003906 L 1286.371094 376.722656 L 1284.027344 376.722656 C 1282.429688 376.722656 1281.125 378.027344 1281.125 379.625 C 1281.125 381.222656 1282.429688 382.527344 1284.027344 382.527344 L 1285.523438 382.527344 L 1285.523438 383.050781 C 1285.523438 395.710938 1295.886719 406.085938 1308.527344 406.085938 L 1340.851562 406.085938 C 1353.492188 406.085938 1363.851562 395.710938 1363.851562 383.050781 L 1363.851562 382.527344 L 1367.503906 382.527344 C 1369.097656 382.527344 1370.402344 381.222656 1370.402344 379.625 C 1370.402344 378.027344 1369.097656 376.722656 1367.503906 376.722656 L 1362.355469 376.722656 Z M 1248.21875 319.558594 C 1248.316406 319.589844 1248.414062 319.589844 1248.511719 319.589844 C 1248.414062 319.589844 1248.316406 319.558594 1248.21875 319.558594 Z M 1252.714844 318.480469 L 1252.910156 318.351562 C 1252.84375 318.414062 1252.777344 318.449219 1252.714844 318.480469 Z M 1172.527344 301.90625 L 1172.953125 302.753906 L 1172.953125 376.722656 L 1136.785156 376.722656 Z M 1174.9375 306.964844 L 1208.269531 376.753906 L 1174.9375 376.753906 Z M 1288.71875 376.753906 L 1324.460938 301.9375 L 1324.882812 302.789062 L 1324.882812 376.753906 Z M 1326.871094 376.753906 L 1326.871094 306.964844 L 1360.203125 376.753906 Z M 1326.871094 376.753906 " fill-opacity="1" fill-rule="evenodd"/></g><path fill="#999966" d="M 1255.679688 328.464844 L 1258.808594 328.464844 L 1258.808594 430.914062 L 1255.679688 430.914062 Z M 1255.679688 328.464844 " fill-opacity="1" fill-rule="evenodd"/><path fill="#999966" d="M 1239.648438 328.464844 L 1242.777344 328.464844 L 1242.777344 430.914062 L 1239.648438 430.914062 Z M 1239.648438 328.464844 " fill-opacity="1" fill-rule="evenodd"/><path fill="#999966" d="M 1239.648438 328.464844 L 1258.839844 328.464844 L 1258.839844 331.761719 L 1239.648438 331.761719 Z M 1239.648438 328.464844 " fill-opacity="1" fill-rule="evenodd"/><path fill="#999966" d="M 1204.066406 302.234375 C 1211.039062 301.710938 1219.445312 302.167969 1227.398438 303.960938 C 1234.207031 305.496094 1240.625 307.976562 1245.546875 311.628906 L 1244.503906 313.03125 C 1239.8125 309.574219 1233.585938 307.160156 1227.039062 305.691406 C 1219.285156 303.929688 1211.039062 303.472656 1204.230469 303.996094 L 1204.101562 302.234375 Z M 1204.066406 302.234375 " fill-opacity="1" fill-rule="nonzero"/><path fill="#999966" d="M 1294.0625 302.234375 C 1287.089844 301.710938 1278.683594 302.167969 1270.730469 303.960938 C 1263.921875 305.496094 1257.503906 307.976562 1252.582031 311.628906 L 1253.625 313.03125 C 1258.316406 309.574219 1264.542969 307.160156 1271.089844 305.691406 C 1278.84375 303.929688 1287.089844 303.472656 1293.898438 303.996094 L 1294.027344 302.234375 Z M 1294.0625 302.234375 " fill-opacity="1" fill-rule="nonzero"/><path fill="#999966" d="M 1091.59375 444.523438 C 1095.371094 437.472656 1097.230469 433.949219 1097.230469 433.949219 C 1137.242188 445.238281 1167.804688 464.785156 1188.949219 492.648438 C 1157.507812 466.089844 1122.96875 449.511719 1091.59375 444.523438 Z M 1091.59375 444.523438 " fill-opacity="1" fill-rule="evenodd"/><g clip-path="url(#79f183b416)"><path fill="#999966" d="M 1081.328125 470.558594 C 1086.445312 461 1089.019531 456.203125 1089.019531 456.203125 C 1113.910156 450.851562 1231.242188 522.339844 1248.511719 545.078125 C 1225.3125 525.503906 1113.75 469.15625 1081.328125 470.558594 Z M 1081.328125 470.558594 " fill-opacity="1" fill-rule="evenodd"/></g><path fill="#999966" d="M 1408.882812 444.523438 C 1405.101562 437.472656 1403.246094 433.949219 1403.246094 433.949219 C 1363.234375 445.238281 1332.671875 464.785156 1311.527344 492.648438 C 1342.96875 466.089844 1377.503906 449.511719 1408.882812 444.523438 Z M 1408.882812 444.523438 " fill-opacity="1" fill-rule="evenodd"/><g clip-path="url(#eecf491493)"><path fill="#999966" d="M 1420.9375 470.558594 C 1415.824219 461 1413.25 456.203125 1413.25 456.203125 C 1388.355469 450.851562 1271.023438 522.339844 1253.757812 545.078125 C 1276.957031 525.503906 1388.519531 469.15625 1420.9375 470.558594 Z M 1420.9375 470.558594 " fill-opacity="1" fill-rule="evenodd"/></g><g clip-path="url(#3f0b74e9f5)"><path fill="#999966" d="M 1121.667969 503.480469 C 1124.175781 495.910156 1125.414062 492.09375 1125.414062 492.09375 C 1181.324219 513.625 1199.3125 524.199219 1228.015625 545.832031 C 1192.46875 525.078125 1157.214844 512.191406 1121.632812 503.445312 Z M 1121.667969 503.480469 " fill-opacity="1" fill-rule="evenodd"/></g><g clip-path="url(#0fda700e7a)"><path fill="#999966" d="M 1381.773438 503.480469 C 1379.265625 495.910156 1378.027344 492.09375 1378.027344 492.09375 C 1322.113281 513.625 1304.128906 524.199219 1275.425781 545.832031 C 1310.972656 525.078125 1346.226562 512.191406 1381.804688 503.445312 Z M 1381.773438 503.480469 " fill-opacity="1" fill-rule="evenodd"/></g><path fill="#999966" d="M 1374.898438 301.839844 C 1374.507812 301.777344 1374.148438 302.035156 1374.085938 302.429688 C 1374.019531 302.820312 1374.28125 303.179688 1374.671875 303.242188 C 1393.730469 306.570312 1406.828125 316.394531 1414.421875 328.890625 C 1419.539062 337.339844 1422.144531 347.03125 1422.371094 356.820312 C 1422.601562 366.605469 1420.417969 376.460938 1415.953125 385.238281 C 1409.078125 398.746094 1396.828125 409.707031 1379.589844 413.851562 C 1379.199219 413.949219 1378.972656 414.308594 1379.070312 414.699219 C 1379.167969 415.089844 1379.527344 415.320312 1379.917969 415.222656 C 1397.578125 410.980469 1410.152344 399.757812 1417.191406 385.890625 C 1421.753906 376.917969 1423.96875 366.835938 1423.773438 356.820312 C 1423.542969 346.800781 1420.871094 336.882812 1415.628906 328.203125 C 1407.839844 315.347656 1394.414062 305.300781 1374.898438 301.90625 Z M 1374.898438 301.839844 " fill-opacity="1" fill-rule="nonzero"/><path fill="#999966" d="M 1401.226562 418.417969 C 1395.847656 411.664062 1390.570312 410.097656 1385.359375 413.65625 C 1388.8125 419.722656 1394.089844 421.324219 1401.226562 418.417969 Z M 1401.226562 418.417969 " fill-opacity="1" fill-rule="evenodd"/><path fill="#999966" d="M 1385.226562 395.808594 C 1389.953125 403.050781 1389.789062 408.566406 1384.769531 412.382812 C 1380.078125 407.195312 1380.242188 401.679688 1385.226562 395.808594 Z M 1385.226562 395.808594 " fill-opacity="1" fill-rule="evenodd"/><path fill="#999966" d="M 1422.761719 400.898438 C 1417.160156 395.875 1412.367188 395.285156 1408.425781 399.136719 C 1412.269531 403.867188 1417.0625 404.453125 1422.761719 400.898438 Z M 1422.761719 400.898438 " fill-opacity="1" fill-rule="evenodd"/><path fill="#999966" d="M 1404.582031 383.574219 C 1409.695312 389.121094 1410.382812 393.882812 1406.601562 397.898438 C 1401.8125 394.144531 1401.128906 389.347656 1404.582031 383.574219 Z M 1404.582031 383.574219 " fill-opacity="1" fill-rule="evenodd"/><path fill="#999966" d="M 1437.390625 348.5625 C 1430.582031 347.292969 1426.542969 349.085938 1425.273438 353.980469 C 1430.550781 355.871094 1434.589844 354.078125 1437.390625 348.5625 Z M 1437.390625 348.5625 " fill-opacity="1" fill-rule="evenodd"/><path fill="#999966" d="M 1408.296875 348.5625 C 1415.074219 347.160156 1419.144531 348.890625 1420.515625 353.75 C 1415.300781 355.742188 1411.195312 354.011719 1408.296875 348.5625 Z M 1408.296875 348.5625 " fill-opacity="1" fill-rule="evenodd"/><path fill="#999966" d="M 1404.746094 301.515625 C 1400.671875 305.984375 1400.183594 309.835938 1403.214844 313.03125 C 1407.023438 309.964844 1407.546875 306.148438 1404.746094 301.515625 Z M 1404.746094 301.515625 " fill-opacity="1" fill-rule="evenodd"/><path fill="#999966" d="M 1394.15625 324.679688 C 1395.230469 318.710938 1397.96875 315.96875 1402.332031 316.457031 C 1402.234375 321.351562 1399.5 324.09375 1394.15625 324.679688 Z M 1394.15625 324.679688 " fill-opacity="1" fill-rule="evenodd"/><path fill="#999966" d="M 1395.359375 297.597656 C 1392.394531 301.9375 1392.429688 305.332031 1395.425781 307.714844 C 1398.359375 304.613281 1398.324219 301.253906 1395.359375 297.597656 Z M 1395.359375 297.597656 " fill-opacity="1" fill-rule="evenodd"/><path fill="#999966" d="M 1388.226562 318.546875 C 1388.746094 313.292969 1390.929688 310.75 1394.773438 310.847656 C 1395.035156 315.085938 1392.851562 317.664062 1388.226562 318.546875 Z M 1388.226562 318.546875 " fill-opacity="1" fill-rule="evenodd"/><path fill="#999966" d="M 1413.054688 412.316406 C 1407.449219 405.761719 1402.105469 404.355469 1397.054688 408.109375 C 1400.703125 414.046875 1406.046875 415.449219 1413.054688 412.316406 Z M 1413.054688 412.316406 " fill-opacity="1" fill-rule="evenodd"/><path fill="#999966" d="M 1396.273438 390.328125 C 1401.226562 397.375 1401.289062 402.921875 1396.402344 406.902344 C 1391.546875 401.910156 1391.484375 396.363281 1396.273438 390.328125 Z M 1396.273438 390.328125 " fill-opacity="1" fill-rule="evenodd"/><path fill="#999966" d="M 1430.125 390.195312 C 1424.195312 385.53125 1419.40625 385.238281 1415.691406 389.316406 C 1419.832031 393.785156 1424.621094 394.078125 1430.125 390.195312 Z M 1430.125 390.195312 " fill-opacity="1" fill-rule="evenodd"/><path fill="#999966" d="M 1407.871094 374.566406 C 1414.390625 378.351562 1416.441406 382.691406 1414.0625 387.652344 C 1408.394531 385.464844 1406.308594 381.125 1407.871094 374.566406 Z M 1407.871094 374.566406 " fill-opacity="1" fill-rule="evenodd"/><path fill="#999966" d="M 1435.242188 380.703125 C 1429.019531 376.460938 1424.195312 376.492188 1420.808594 380.800781 C 1425.238281 384.976562 1430.0625 384.945312 1435.242188 380.703125 Z M 1435.242188 380.703125 " fill-opacity="1" fill-rule="evenodd"/><path fill="#999966" d="M 1408.199219 364.746094 C 1415.53125 366.445312 1418.789062 370 1417.941406 375.449219 C 1411.878906 375.023438 1408.621094 371.46875 1408.199219 364.746094 Z M 1408.199219 364.746094 " fill-opacity="1" fill-rule="evenodd"/><path fill="#999966" d="M 1437.425781 369.21875 C 1430.386719 366.574219 1425.695312 367.714844 1423.414062 372.707031 C 1428.691406 375.742188 1433.382812 374.566406 1437.425781 369.21875 Z M 1437.425781 369.21875 " fill-opacity="1" fill-rule="evenodd"/><path fill="#999966" d="M 1408.101562 356.753906 C 1415.59375 356.101562 1419.765625 358.515625 1420.644531 363.929688 C 1414.746094 365.398438 1410.542969 363.019531 1408.101562 356.753906 Z M 1408.101562 356.753906 " fill-opacity="1" fill-rule="evenodd"/><g clip-path="url(#663af7df24)"><path fill="#999966" d="M 1439.054688 359.789062 C 1432.015625 357.144531 1427.324219 358.285156 1425.042969 363.277344 C 1430.320312 366.3125 1435.015625 365.136719 1439.054688 359.789062 Z M 1439.054688 359.789062 " fill-opacity="1" fill-rule="evenodd"/></g><path fill="#999966" d="M 1387.800781 295.085938 C 1385.164062 299.65625 1385.457031 303.015625 1388.617188 305.167969 C 1391.289062 301.875 1391.027344 298.511719 1387.800781 295.085938 Z M 1387.800781 295.085938 " fill-opacity="1" fill-rule="evenodd"/><path fill="#999966" d="M 1381.351562 315.085938 C 1381.871094 309.835938 1384.054688 307.257812 1387.867188 307.355469 C 1388.128906 311.597656 1385.945312 314.175781 1381.351562 315.085938 Z M 1381.351562 315.085938 " fill-opacity="1" fill-rule="evenodd"/><path fill="#999966" d="M 1380.632812 295.738281 C 1378.710938 299.101562 1378.90625 301.578125 1381.253906 303.179688 C 1383.238281 300.730469 1383.011719 298.253906 1380.632812 295.738281 Z M 1380.632812 295.738281 " fill-opacity="1" fill-rule="evenodd"/><path fill="#999966" d="M 1375.875 310.488281 C 1376.265625 306.636719 1377.863281 304.746094 1380.699219 304.808594 C 1380.894531 307.941406 1379.296875 309.835938 1375.875 310.488281 Z M 1375.875 310.488281 " fill-opacity="1" fill-rule="evenodd"/><path fill="#999966" d="M 1417.453125 308.628906 C 1412.042969 312.933594 1410.773438 317.207031 1413.640625 321.351562 C 1418.496094 318.578125 1419.765625 314.335938 1417.453125 308.628906 Z M 1417.453125 308.628906 " fill-opacity="1" fill-rule="evenodd"/><path fill="#999966" d="M 1398.457031 330.714844 C 1401.8125 324.648438 1405.753906 322.691406 1410.347656 324.8125 C 1408.460938 330.0625 1404.484375 332.054688 1398.457031 330.714844 Z M 1398.457031 330.714844 " fill-opacity="1" fill-rule="evenodd"/><path fill="#999966" d="M 1425.207031 319.035156 C 1419.144531 322.363281 1417.160156 326.34375 1419.277344 330.914062 C 1424.554688 329.019531 1426.511719 325.070312 1425.207031 319.035156 Z M 1425.207031 319.035156 " fill-opacity="1" fill-rule="evenodd"/><path fill="#999966" d="M 1402.722656 337.566406 C 1407.058594 332.183594 1411.292969 330.914062 1415.464844 333.785156 C 1412.695312 338.644531 1408.460938 339.917969 1402.722656 337.566406 Z M 1402.722656 337.566406 " fill-opacity="1" fill-rule="evenodd"/><path fill="#999966" d="M 1436.480469 339.460938 C 1429.671875 338.1875 1425.628906 339.984375 1424.359375 344.875 C 1429.636719 346.769531 1433.679688 344.976562 1436.480469 339.460938 Z M 1436.480469 339.460938 " fill-opacity="1" fill-rule="evenodd"/><path fill="#999966" d="M 1405.917969 342.59375 C 1411.585938 338.644531 1416.019531 338.613281 1419.179688 342.558594 C 1415.136719 346.441406 1410.738281 346.476562 1405.917969 342.59375 Z M 1405.917969 342.59375 " fill-opacity="1" fill-rule="evenodd"/><path fill="#999966" d="M 1433.742188 330.683594 C 1426.933594 329.410156 1422.894531 331.207031 1421.621094 336.101562 C 1426.902344 337.992188 1430.941406 336.199219 1433.742188 330.683594 Z M 1433.742188 330.683594 " fill-opacity="1" fill-rule="evenodd"/><path fill="#999966" d="M 1132.941406 301.839844 C 1133.332031 301.777344 1133.6875 302.035156 1133.753906 302.429688 C 1133.820312 302.820312 1133.558594 303.179688 1133.167969 303.242188 C 1114.105469 306.570312 1101.007812 316.394531 1093.417969 328.890625 C 1088.300781 337.339844 1085.695312 347.03125 1085.46875 356.820312 C 1085.238281 366.605469 1087.421875 376.460938 1091.886719 385.238281 C 1098.761719 398.746094 1111.011719 409.707031 1128.25 413.851562 C 1128.640625 413.949219 1128.867188 414.308594 1128.769531 414.699219 C 1128.671875 415.089844 1128.3125 415.320312 1127.921875 415.222656 C 1110.261719 410.980469 1097.6875 399.757812 1090.648438 385.890625 C 1086.085938 376.917969 1083.871094 366.835938 1084.066406 356.820312 C 1084.292969 346.800781 1086.964844 336.882812 1092.210938 328.203125 C 1100 315.347656 1113.421875 305.300781 1132.941406 301.90625 Z M 1132.941406 301.839844 " fill-opacity="1" fill-rule="nonzero"/><path fill="#999966" d="M 1106.644531 418.417969 C 1112.023438 411.664062 1117.300781 410.097656 1122.511719 413.65625 C 1119.058594 419.722656 1113.78125 421.324219 1106.644531 418.417969 Z M 1106.644531 418.417969 " fill-opacity="1" fill-rule="evenodd"/><path fill="#999966" d="M 1122.644531 395.808594 C 1117.917969 403.050781 1118.082031 408.566406 1123.101562 412.382812 C 1127.792969 407.195312 1127.628906 401.679688 1122.644531 395.808594 Z M 1122.644531 395.808594 " fill-opacity="1" fill-rule="evenodd"/><path fill="#999966" d="M 1085.074219 400.898438 C 1090.679688 395.875 1095.46875 395.285156 1099.414062 399.136719 C 1095.566406 403.867188 1090.777344 404.453125 1085.074219 400.898438 Z M 1085.074219 400.898438 " fill-opacity="1" fill-rule="evenodd"/><path fill="#999966" d="M 1103.289062 383.574219 C 1098.175781 389.121094 1097.488281 393.882812 1101.269531 397.898438 C 1106.058594 394.144531 1106.742188 389.347656 1103.289062 383.574219 Z M 1103.289062 383.574219 " fill-opacity="1" fill-rule="evenodd"/><path fill="#999966" d="M 1070.445312 348.5625 C 1077.257812 347.292969 1081.296875 349.085938 1082.566406 353.980469 C 1077.289062 355.871094 1073.25 354.078125 1070.445312 348.5625 Z M 1070.445312 348.5625 " fill-opacity="1" fill-rule="evenodd"/><path fill="#999966" d="M 1099.574219 348.5625 C 1092.796875 347.160156 1088.726562 348.890625 1087.355469 353.75 C 1092.570312 355.742188 1096.675781 354.011719 1099.574219 348.5625 Z M 1099.574219 348.5625 " fill-opacity="1" fill-rule="evenodd"/><path fill="#999966" d="M 1103.09375 301.515625 C 1107.167969 305.984375 1107.65625 309.835938 1104.625 313.03125 C 1100.8125 309.964844 1100.292969 306.148438 1103.09375 301.515625 Z M 1103.09375 301.515625 " fill-opacity="1" fill-rule="evenodd"/><path fill="#999966" d="M 1113.683594 324.679688 C 1112.609375 318.710938 1109.871094 315.96875 1105.503906 316.457031 C 1105.601562 321.351562 1108.339844 324.09375 1113.683594 324.679688 Z M 1113.683594 324.679688 " fill-opacity="1" fill-rule="evenodd"/><path fill="#999966" d="M 1112.476562 297.597656 C 1115.441406 301.9375 1115.410156 305.332031 1112.414062 307.714844 C 1109.480469 304.613281 1109.511719 301.253906 1112.476562 297.597656 Z M 1112.476562 297.597656 " fill-opacity="1" fill-rule="evenodd"/><path fill="#999966" d="M 1119.613281 318.546875 C 1119.09375 313.292969 1116.910156 310.75 1113.066406 310.847656 C 1112.804688 315.085938 1114.988281 317.664062 1119.613281 318.546875 Z M 1119.613281 318.546875 " fill-opacity="1" fill-rule="evenodd"/><path fill="#999966" d="M 1094.785156 412.316406 C 1100.390625 405.761719 1105.734375 404.355469 1110.785156 408.109375 C 1107.132812 414.046875 1101.789062 415.449219 1094.785156 412.316406 Z M 1094.785156 412.316406 " fill-opacity="1" fill-rule="evenodd"/><path fill="#999966" d="M 1111.566406 390.328125 C 1106.613281 397.375 1106.546875 402.921875 1111.433594 406.902344 C 1116.289062 401.910156 1116.355469 396.363281 1111.566406 390.328125 Z M 1111.566406 390.328125 " fill-opacity="1" fill-rule="evenodd"/><path fill="#999966" d="M 1077.710938 390.195312 C 1083.640625 385.53125 1088.433594 385.238281 1092.148438 389.316406 C 1088.007812 393.785156 1083.21875 394.078125 1077.710938 390.195312 Z M 1077.710938 390.195312 " fill-opacity="1" fill-rule="evenodd"/><path fill="#999966" d="M 1099.964844 374.566406 C 1093.449219 378.351562 1091.398438 382.691406 1093.777344 387.652344 C 1099.445312 385.464844 1101.53125 381.125 1099.964844 374.566406 Z M 1099.964844 374.566406 " fill-opacity="1" fill-rule="evenodd"/><path fill="#999966" d="M 1072.628906 380.703125 C 1078.851562 376.460938 1083.675781 376.492188 1087.0625 380.800781 C 1082.632812 384.976562 1077.808594 384.945312 1072.628906 380.703125 Z M 1072.628906 380.703125 " fill-opacity="1" fill-rule="evenodd"/><path fill="#999966" d="M 1099.640625 364.746094 C 1092.308594 366.445312 1089.050781 370 1089.898438 375.449219 C 1095.957031 375.023438 1099.21875 371.46875 1099.640625 364.746094 Z M 1099.640625 364.746094 " fill-opacity="1" fill-rule="evenodd"/><path fill="#999966" d="M 1070.414062 369.21875 C 1077.453125 366.574219 1082.144531 367.714844 1084.425781 372.707031 C 1079.144531 375.742188 1074.453125 374.566406 1070.414062 369.21875 Z M 1070.414062 369.21875 " fill-opacity="1" fill-rule="evenodd"/><path fill="#999966" d="M 1099.738281 356.753906 C 1092.246094 356.101562 1088.074219 358.515625 1087.195312 363.929688 C 1093.089844 365.398438 1097.292969 363.019531 1099.738281 356.753906 Z M 1099.738281 356.753906 " fill-opacity="1" fill-rule="evenodd"/><path fill="#999966" d="M 1068.785156 359.789062 C 1075.824219 357.144531 1080.515625 358.285156 1082.796875 363.277344 C 1077.515625 366.3125 1072.824219 365.136719 1068.785156 359.789062 Z M 1068.785156 359.789062 " fill-opacity="1" fill-rule="evenodd"/><path fill="#999966" d="M 1120.039062 295.085938 C 1122.675781 299.65625 1122.382812 303.015625 1119.222656 305.167969 C 1116.550781 301.875 1116.8125 298.511719 1120.039062 295.085938 Z M 1120.039062 295.085938 " fill-opacity="1" fill-rule="evenodd"/><path fill="#999966" d="M 1126.488281 315.085938 C 1125.96875 309.835938 1123.785156 307.257812 1119.972656 307.355469 C 1119.710938 311.597656 1121.894531 314.175781 1126.488281 315.085938 Z M 1126.488281 315.085938 " fill-opacity="1" fill-rule="evenodd"/><path fill="#999966" d="M 1127.207031 295.738281 C 1129.128906 299.101562 1128.933594 301.578125 1126.585938 303.179688 C 1124.597656 300.730469 1124.828125 298.253906 1127.207031 295.738281 Z M 1127.207031 295.738281 " fill-opacity="1" fill-rule="evenodd"/><path fill="#999966" d="M 1131.960938 310.488281 C 1131.570312 306.636719 1129.976562 304.746094 1127.140625 304.808594 C 1126.945312 307.941406 1128.542969 309.835938 1131.960938 310.488281 Z M 1131.960938 310.488281 " fill-opacity="1" fill-rule="evenodd"/><path fill="#999966" d="M 1090.386719 308.628906 C 1095.796875 312.933594 1097.066406 317.207031 1094.199219 321.351562 C 1089.34375 318.578125 1088.074219 314.335938 1090.386719 308.628906 Z M 1090.386719 308.628906 " fill-opacity="1" fill-rule="evenodd"/><path fill="#999966" d="M 1109.382812 330.714844 C 1106.027344 324.648438 1102.085938 322.691406 1097.488281 324.8125 C 1099.378906 330.0625 1103.355469 332.054688 1109.382812 330.714844 Z M 1109.382812 330.714844 " fill-opacity="1" fill-rule="evenodd"/><path fill="#999966" d="M 1082.632812 319.035156 C 1088.691406 322.363281 1090.679688 326.34375 1088.5625 330.914062 C 1083.285156 329.019531 1081.328125 325.070312 1082.632812 319.035156 Z M 1082.632812 319.035156 " fill-opacity="1" fill-rule="evenodd"/><path fill="#999966" d="M 1105.148438 337.566406 C 1100.8125 332.183594 1096.578125 330.914062 1092.40625 333.785156 C 1095.175781 338.644531 1099.414062 339.917969 1105.148438 337.566406 Z M 1105.148438 337.566406 " fill-opacity="1" fill-rule="evenodd"/><path fill="#999966" d="M 1071.359375 339.460938 C 1078.167969 338.1875 1082.207031 339.984375 1083.480469 344.875 C 1078.199219 346.769531 1074.160156 344.976562 1071.359375 339.460938 Z M 1071.359375 339.460938 " fill-opacity="1" fill-rule="evenodd"/><path fill="#999966" d="M 1101.921875 342.59375 C 1096.25 338.644531 1091.820312 338.613281 1088.660156 342.558594 C 1092.699219 346.441406 1097.097656 346.476562 1101.921875 342.59375 Z M 1101.921875 342.59375 " fill-opacity="1" fill-rule="evenodd"/><path fill="#999966" d="M 1074.097656 330.683594 C 1080.90625 329.410156 1084.945312 331.207031 1086.214844 336.101562 C 1080.9375 337.992188 1076.898438 336.199219 1074.097656 330.683594 Z M 1074.097656 330.683594 " fill-opacity="1" fill-rule="evenodd"/></svg>