<svg xmlns="http://www.w3.org/2000/svg" xmlns:xlink="http://www.w3.org/1999/xlink" width="1366" zoomAndPan="magnify" viewBox="0 0 1024.5 576" height="768" preserveAspectRatio="xMidYMid meet" version="1.0"><defs><clipPath id="6f9dd8b073"><path d="M 0 0.140625 L 1024 0.140625 L 1024 575.859375 L 0 575.859375 Z M 0 0.140625 " clip-rule="nonzero"/></clipPath><clipPath id="5ce02dcbd4"><path d="M 657 85 L 779.640625 85 L 779.640625 481 L 657 481 Z M 657 85 " clip-rule="nonzero"/></clipPath><clipPath id="58307b8ece"><path d="M 244.402344 76.933594 L 359 76.933594 L 359 470 L 244.402344 470 Z M 244.402344 76.933594 " clip-rule="nonzero"/></clipPath><clipPath id="6ff44218a1"><path d="M 458 76.933594 L 578 76.933594 L 578 468 L 458 468 Z M 458 76.933594 " clip-rule="nonzero"/></clipPath><clipPath id="e43a111329"><path d="M 689 487 L 691 487 L 691 498.976562 L 689 498.976562 Z M 689 487 " clip-rule="nonzero"/></clipPath></defs><g clip-path="url(#6f9dd8b073)"><path fill="#ffffff" d="M 0 0.140625 L 1024 0.140625 L 1024 575.859375 L 0 575.859375 Z M 0 0.140625 " fill-opacity="1" fill-rule="nonzero"/></g><g clip-path="url(#5ce02dcbd4)"><path fill="#737373" d="M 757.066406 272.835938 C 754.078125 276.839844 754.523438 281.375 754.710938 285.847656 C 755.070312 294.523438 755.53125 303.195312 755.863281 311.871094 C 756.332031 324.230469 756.480469 336.609375 757.214844 348.957031 C 757.953125 361.425781 759.507812 373.84375 760.195312 386.3125 C 760.84375 398.027344 761.304688 409.761719 760.292969 421.523438 C 759.59375 429.675781 759.601562 437.890625 759.367188 446.082031 C 759.261719 449.878906 758.804688 453.535156 756.59375 456.773438 C 756.347656 457.132812 756.277344 457.660156 756.253906 458.117188 C 756.125 460.585938 756.019531 463.058594 755.949219 465.53125 C 755.910156 466.847656 755.707031 468.234375 756.035156 469.464844 C 756.5 471.210938 755.988281 472.523438 754.824219 473.609375 C 749.046875 478.992188 742.546875 481.863281 734.492188 479.386719 C 733.023438 478.933594 732.449219 478.289062 732.601562 476.757812 C 733.046875 472.261719 733.523438 467.816406 735.65625 463.683594 C 737.144531 460.796875 737.296875 457.886719 735.667969 454.765625 C 734.105469 451.773438 732.9375 448.519531 732.03125 445.261719 C 731.523438 443.429688 731.652344 441.316406 731.9375 439.394531 C 732.246094 437.285156 733.410156 435.285156 733.585938 433.183594 C 733.808594 430.488281 733.617188 427.714844 733.253906 425.019531 C 731.179688 409.542969 728.824219 394.105469 726.921875 378.609375 C 725.8125 369.585938 725.398438 360.480469 724.601562 351.414062 C 724.351562 348.316406 723.820312 345.265625 723.007812 342.265625 C 722.960938 342.585938 722.9375 342.90625 722.933594 343.230469 C 723.402344 350.699219 722.34375 358.042969 721.441406 365.429688 C 721.042969 368.726562 721.972656 372.175781 722.234375 375.5625 C 722.929688 384.425781 723.996094 393.273438 723.046875 402.191406 C 722.957031 403.0625 723.242188 403.972656 723.316406 404.867188 C 723.726562 409.769531 724.066406 414.679688 724.578125 419.574219 C 724.722656 420.640625 725.167969 421.566406 725.910156 422.34375 C 727.289062 423.734375 728.253906 425.171875 728.367188 427.203125 C 728.691406 433.082031 729.164062 438.957031 729.40625 444.839844 C 729.4375 445.625 728.660156 446.78125 727.929688 447.195312 C 725.984375 448.273438 723.960938 449.179688 721.855469 449.910156 C 721.132812 450.167969 720.109375 449.960938 719.347656 449.660156 C 718.167969 449.199219 717.371094 449.386719 716.757812 450.472656 C 716.621094 450.710938 716.410156 450.914062 716.292969 451.164062 C 714.988281 453.84375 713.335938 456.070312 710.324219 457.152344 C 705.582031 458.855469 701.058594 461.417969 695.707031 459.941406 C 694.375 459.574219 692.945312 459.566406 691.617188 459.1875 C 690.753906 458.9375 689.296875 458.261719 689.324219 457.871094 C 689.40625 456.804688 689.898438 455.550781 690.652344 454.785156 C 693.636719 451.75 696.804688 448.894531 699.859375 445.925781 C 700.949219 444.863281 701.875 443.632812 702.9375 442.539062 C 704.25 441.191406 704.269531 439.609375 703.914062 437.9375 C 703.613281 436.507812 703.210938 435.097656 703.007812 433.660156 C 702.746094 431.8125 702.8125 430.078125 704.800781 428.96875 C 705.246094 428.71875 705.535156 427.613281 705.40625 427.003906 C 703.824219 419.402344 701.867188 411.867188 700.578125 404.21875 C 699.238281 396.289062 698.171875 388.277344 697.609375 380.253906 C 696.710938 367.285156 694.6875 354.496094 691.542969 341.882812 C 688.40625 329.304688 685.929688 316.566406 683.167969 303.894531 C 683.023438 303.214844 682.914062 302.53125 682.839844 301.839844 C 682.648438 300.125 682.632812 298.355469 680.175781 298.214844 C 679.789062 298.191406 679.15625 297.269531 679.136719 296.742188 C 678.796875 287.375 678.105469 277.992188 678.367188 268.636719 C 678.621094 259.425781 679.957031 250.25 680.632812 241.042969 C 681.234375 232.851562 682.316406 224.628906 680 216.476562 C 679.867188 219.394531 679.875 222.328125 679.570312 225.226562 C 678.242188 237.859375 676.804688 250.476562 675.457031 263.109375 C 675.214844 265.382812 675.015625 267.695312 675.109375 269.972656 C 675.367188 276.070312 675.800781 282.160156 676.15625 288.253906 C 676.214844 289.292969 676.242188 290.335938 676.25 291.378906 C 676.277344 294.867188 676.027344 295.132812 672.589844 295.386719 C 672.179688 295.417969 671.777344 295.464844 671.335938 295.960938 C 672.335938 296.007812 673.359375 295.945312 674.328125 296.140625 C 675.03125 296.285156 675.664062 296.777344 676.328125 297.113281 L 674.9375 299.25 C 675.195312 299.621094 675.417969 300.007812 675.601562 300.421875 C 676.042969 301.511719 675.539062 302.085938 674.445312 301.953125 C 670.945312 301.519531 664.140625 299.050781 662.925781 294.027344 C 662.605469 292.695312 661.8125 291.464844 661.53125 290.128906 C 660.695312 286.121094 659.859375 282.105469 659.285156 278.058594 C 657.546875 265.757812 657.289062 253.382812 658.28125 241.03125 C 658.917969 233.113281 659.992188 225.214844 661.3125 217.382812 C 662.917969 207.886719 663.042969 198.304688 663.707031 188.746094 C 664.179688 181.957031 664.683594 175.164062 665.355469 168.394531 C 665.601562 165.929688 666.457031 163.53125 666.886719 161.078125 C 667.285156 158.789062 669.128906 158.695312 670.78125 157.996094 C 676.011719 155.777344 681.175781 153.394531 686.328125 150.992188 C 688.261719 150.089844 690.265625 149.1875 691.933594 147.894531 C 696.800781 144.117188 697.699219 139.035156 696.101562 133.351562 C 695.398438 130.84375 694.535156 128.378906 693.730469 125.898438 C 693.648438 125.644531 693.542969 125.3125 693.34375 125.199219 C 689.53125 123.003906 689.574219 118.722656 688.128906 115.300781 C 687.433594 113.652344 688.464844 113.085938 690.78125 113.746094 C 690.78125 113.382812 690.855469 113.046875 690.769531 112.757812 C 689.234375 107.445312 688.699219 102.042969 689.414062 96.550781 C 690.175781 90.652344 693.808594 86.640625 700.078125 86.660156 C 701.289062 86.664062 702.5 86.210938 703.707031 85.941406 C 704.109375 85.851562 704.507812 85.53125 704.886719 85.566406 C 710.207031 86.070312 715.773438 85.753906 720.019531 89.984375 C 722.199219 92.160156 723.121094 94.828125 723.355469 97.835938 C 723.570312 100.59375 723.984375 103.339844 724.136719 106.097656 C 724.230469 107.808594 723.996094 109.535156 723.910156 111.265625 C 725.957031 110.664062 726.257812 110.871094 725.878906 112.9375 C 725.390625 115.589844 725.355469 118.5625 724.050781 120.761719 C 722.558594 123.269531 722.375 125.949219 721.53125 128.523438 C 721.324219 129.113281 721.222656 129.722656 721.222656 130.351562 C 721.277344 132.507812 720.617188 134.855469 723.953125 135.609375 C 725.382812 135.929688 726.585938 137.558594 727.742188 138.738281 C 730.824219 141.882812 734.886719 142.828125 738.90625 143.855469 C 745.554688 145.558594 752.238281 147.121094 758.859375 148.921875 C 759.953125 149.21875 761.234375 150.238281 761.667969 151.25 C 762.675781 153.589844 763.214844 156.125 763.9375 158.582031 C 767.554688 170.878906 771.261719 183.152344 774.742188 195.492188 C 776.417969 201.425781 778.207031 207.417969 778.957031 213.503906 C 779.710938 219.632812 779.996094 225.871094 778.464844 232.113281 C 776.589844 239.738281 774.796875 247.398438 771.320312 254.425781 C 768.226562 260.695312 764.386719 266.597656 760.820312 272.628906 C 760.402344 273.335938 759.800781 274.210938 758.691406 273.179688 C 758.316406 272.828125 757.527344 272.921875 757.066406 272.835938 Z M 667.902344 285.785156 C 667.070312 292.414062 669.304688 294.941406 672.742188 293.023438 C 672.328125 290.332031 671.917969 287.648438 671.488281 284.824219 C 670.074219 285.203125 668.960938 285.503906 667.902344 285.785156 Z M 667.902344 285.785156 " fill-opacity="1" fill-rule="nonzero"/></g><g clip-path="url(#58307b8ece)"><path fill="#737373" d="M 302.949219 301.519531 C 302.320312 305.761719 301.664062 310.003906 301.0625 314.25 C 300.238281 320.074219 299.367188 325.898438 298.679688 331.742188 C 297.164062 344.5625 295.527344 357.378906 294.351562 370.234375 C 293.003906 384.960938 292.019531 399.722656 291.078125 414.480469 C 290.886719 417.472656 291.441406 420.546875 291.914062 423.542969 C 292.386719 426.5 292.074219 429.195312 290.414062 431.71875 C 288.839844 434.105469 287.851562 436.46875 288.292969 439.613281 C 288.679688 442.402344 288.070312 445.40625 287.496094 448.234375 C 286.949219 450.90625 283.816406 453.023438 280.9375 452.996094 C 280.644531 454.265625 280.234375 455.582031 280.046875 456.929688 C 279.578125 460.300781 278.042969 463 275.089844 464.71875 C 272.710938 466.105469 270.292969 467.496094 267.75 468.523438 C 265.207031 469.550781 262.613281 469.113281 260.566406 467.179688 C 258.453125 465.1875 258.140625 462.46875 259.238281 460.050781 C 260.765625 456.714844 262.59375 453.554688 264.722656 450.566406 C 267.429688 446.734375 270.015625 442.917969 270.664062 438.136719 C 270.773438 437.320312 270.917969 436.480469 270.832031 435.671875 C 270.320312 430.847656 270.808594 426.125 271.886719 421.414062 C 272.167969 420.191406 272.214844 418.695312 271.765625 417.566406 C 269.667969 412.261719 269.167969 406.675781 268.347656 401.117188 C 266.980469 391.839844 268.289062 382.683594 269.164062 373.488281 C 270.289062 361.671875 268.976562 349.875 268.554688 338.078125 C 268.0625 324.265625 267.523438 310.445312 266.667969 296.648438 C 266.195312 289.167969 265.324219 281.730469 264.054688 274.339844 C 263.636719 271.878906 261.5 269.707031 260.101562 267.324219 C 259.339844 267.695312 258.820312 268 258.265625 268.210938 C 255.28125 269.339844 254.074219 268.8125 253.421875 265.738281 C 252.226562 260.113281 251.261719 254.4375 250.074219 248.808594 C 249.15625 244.46875 247.785156 240.210938 247.074219 235.839844 C 245.96875 229.066406 244.835938 222.25 244.492188 215.410156 C 244.207031 209.777344 244.933594 204.074219 245.429688 198.421875 C 245.925781 192.761719 246.160156 186.996094 247.472656 181.503906 C 249.46875 173.164062 252.25 165.007812 254.796875 156.800781 C 255.886719 153.296875 257.335938 149.902344 258.433594 146.398438 C 259.355469 143.449219 261.292969 141.828125 264.152344 140.921875 C 269.566406 139.210938 274.933594 137.355469 280.324219 135.574219 C 283.117188 134.648438 285.6875 133.472656 287.667969 131.101562 C 288.4375 130.179688 289.90625 129.84375 290.980469 129.277344 C 290.699219 125.5 290.640625 121.664062 290.039062 117.921875 C 289.714844 115.898438 290.078125 113.277344 287.46875 112.132812 C 287.261719 112.042969 287.105469 111.703125 287.039062 111.449219 C 286.292969 108.570312 285.464844 105.703125 284.886719 102.789062 C 284.636719 101.511719 285.171875 100.40625 287.0625 100.941406 C 285.957031 95.511719 286.320312 90.347656 288.480469 85.367188 C 290.953125 79.664062 299.480469 75.617188 305.535156 77.351562 C 307.203125 77.835938 308.820312 78.449219 310.394531 79.1875 C 316.140625 81.863281 319.34375 86.230469 319.234375 92.757812 C 319.1875 95.675781 319.226562 98.589844 319.582031 101.378906 C 319.886719 102.167969 320.597656 103.066406 320.421875 103.730469 C 319.671875 106.601562 318.726562 109.429688 317.722656 112.226562 C 317.15625 113.804688 316.003906 115.234375 315.707031 116.839844 C 314.960938 120.832031 314.550781 124.886719 314.082031 128.371094 C 316.238281 129.761719 317.828125 130.933594 319.554688 131.859375 C 321.6875 133.015625 323.878906 134.046875 326.125 134.960938 C 332.160156 137.394531 338.25 139.703125 344.28125 142.152344 C 344.980469 142.4375 345.707031 143.210938 345.976562 143.925781 C 349.59375 153.46875 352.683594 163.167969 354.386719 173.269531 C 354.71875 175.242188 355.683594 177.101562 356.019531 179.074219 C 356.738281 183.292969 357.4375 187.535156 357.777344 191.796875 C 358.296875 198.285156 358.550781 204.796875 358.816406 211.300781 C 358.929688 214.066406 358.992188 216.867188 358.722656 219.613281 C 357.617188 230.867188 356.417969 242.113281 355.128906 253.347656 C 354.953125 254.859375 354.042969 256.289062 353.480469 257.757812 C 352.488281 260.335938 351.503906 262.917969 350.511719 265.496094 C 350.082031 266.597656 350.019531 267.515625 348.0625 267.355469 C 345.75 267.167969 344.679688 269.546875 343.886719 271.589844 C 340.359375 280.695312 339.304688 290.277344 338.515625 299.890625 C 337.492188 312.417969 336.375 324.941406 335.707031 337.488281 C 335.269531 345.671875 335.597656 353.890625 335.515625 362.09375 C 335.429688 371.042969 335.472656 380 335.074219 388.933594 C 334.695312 397.46875 333.800781 405.976562 333.179688 414.5 C 333.027344 416.578125 333.199219 418.683594 332.96875 420.746094 C 332.351562 426.253906 331.578125 431.738281 330.929688 437.238281 C 330.835938 438.042969 330.839844 439.019531 331.210938 439.6875 C 333.476562 443.746094 335.898438 447.714844 338.1875 451.757812 C 339.90625 454.785156 340.75 458.023438 340.136719 461.546875 C 339.589844 464.675781 337.660156 466.324219 334.515625 466.183594 C 332.78125 466.109375 331.039062 466.011719 329.324219 465.769531 C 325.066406 465.167969 322.925781 461.898438 320.824219 458.703125 C 320.074219 457.566406 319.5625 456.207031 319.234375 454.878906 C 318.640625 452.472656 318.148438 450.300781 315.429688 449.082031 C 314.269531 448.558594 313.296875 446.570312 313.109375 445.136719 C 312.71875 442.144531 312.914062 439.078125 312.855469 436.042969 C 312.828125 434.640625 313.128906 433.101562 312.65625 431.867188 C 310.84375 427.136719 311 422.441406 312.679688 417.8125 C 314.113281 413.855469 314.382812 410.050781 313.585938 405.828125 C 312.523438 400.191406 312.226562 394.390625 311.855469 388.644531 C 311.296875 379.980469 311.101562 371.289062 310.445312 362.632812 C 310.183594 359.207031 308.925781 355.871094 308.441406 352.449219 C 307.742188 347.503906 307.273438 342.523438 306.816406 337.542969 C 305.765625 326.199219 304.785156 314.851562 303.761719 303.503906 C 303.703125 302.839844 303.519531 302.1875 303.394531 301.53125 Z M 266.085938 193.925781 C 262.746094 206.507812 259.648438 218.542969 264.746094 231.351562 C 270.3125 219.007812 272.140625 206.921875 266.085938 193.925781 Z M 338.210938 192.847656 L 337.582031 193.003906 C 335.140625 206.660156 338.351562 219.960938 340.449219 233.347656 C 340.964844 230.285156 342.03125 227.367188 341.304688 224.0625 C 340.449219 220.160156 340 216.140625 339.699219 212.148438 C 339.277344 206.542969 339.183594 200.917969 338.886719 195.304688 C 338.839844 194.476562 338.445312 193.664062 338.210938 192.847656 Z M 338.210938 192.847656 " fill-opacity="1" fill-rule="nonzero"/></g><g clip-path="url(#6ff44218a1)"><path fill="#737373" d="M 517.492188 295.855469 C 516.933594 298.972656 516.082031 302.066406 515.867188 305.207031 C 514.742188 321.566406 513.441406 337.925781 512.851562 354.308594 C 512.25 370.917969 513.546875 387.480469 515.523438 403.996094 C 516.839844 414.957031 517.679688 425.976562 518.648438 436.976562 C 518.878906 439.746094 518.9375 442.523438 518.820312 445.300781 C 518.789062 446.207031 518.253906 447.386719 517.554688 447.910156 C 515.75 449.257812 514.195312 451.480469 511.015625 450.222656 C 510.957031 451.480469 510.769531 452.554688 510.894531 453.589844 C 511.15625 455.773438 510.140625 457.199219 508.652344 458.652344 C 503.246094 463.910156 496.769531 463.621094 490.109375 462.414062 C 489.671875 462.335938 489.035156 461.492188 489.0625 461.039062 C 489.21875 458.367188 489.382812 455.675781 489.890625 453.054688 C 490.109375 451.921875 491.117188 450.921875 491.832031 449.910156 C 492.632812 448.777344 493.402344 447.59375 494.363281 446.605469 C 497.636719 443.242188 497.402344 439.210938 496.609375 435.117188 C 495.316406 428.449219 493.546875 421.851562 492.640625 415.132812 C 491.625 407.574219 491.324219 399.914062 490.742188 392.296875 C 489.421875 374.992188 488.417969 357.679688 485.097656 340.566406 C 482.285156 326.066406 480.246094 311.417969 477.910156 296.824219 C 477.339844 293.261719 476.921875 289.675781 476.484375 286.09375 C 476.328125 284.820312 475.96875 284.050781 474.484375 283.722656 C 469.925781 282.722656 469.855469 282.628906 470.21875 277.988281 C 471.292969 264.347656 472.046875 250.664062 473.714844 237.09375 C 474.671875 229.3125 474.695312 221.527344 473.78125 213.738281 C 471.542969 213.398438 469.3125 212.886719 467.058594 212.765625 C 464.804688 212.640625 463.871094 211.363281 463.058594 209.515625 C 459.792969 202.09375 458.335938 194.367188 458.246094 186.25 C 458.160156 178.003906 458.867188 169.90625 460.597656 161.847656 C 461.542969 157.441406 462.046875 152.945312 462.757812 148.488281 C 462.835938 147.941406 462.960938 147.398438 463.128906 146.871094 C 463.984375 144.316406 465.015625 142.671875 468.324219 141.964844 C 474.089844 140.738281 479.660156 138.414062 485.152344 136.15625 C 489.601562 134.328125 492.9375 130.933594 495.585938 126.925781 C 495.84375 126.539062 496.035156 125.921875 495.925781 125.503906 C 494.980469 121.957031 493.964844 118.4375 492.953125 114.910156 C 492.882812 114.660156 492.753906 114.328125 492.554688 114.226562 C 488.058594 111.914062 488.449219 107.351562 487.664062 103.382812 C 487.574219 102.945312 488.613281 102.289062 489.4375 101.402344 C 489.4375 99.070312 489.410156 96.101562 489.449219 93.132812 C 489.46875 91.746094 489.496094 90.34375 489.730469 88.984375 C 490.839844 82.609375 494.96875 78.90625 500.972656 77.582031 C 507.84375 76.066406 514.382812 77.042969 519.808594 82.078125 C 523.082031 85.113281 523.605469 89.226562 523.996094 93.3125 C 524.21875 95.652344 524.035156 98.03125 524.035156 100.554688 C 525.851562 100.496094 525.976562 101.347656 525.519531 102.78125 C 525.039062 104.289062 524.859375 105.894531 524.519531 107.453125 C 524.109375 109.347656 524.390625 111.382812 522.449219 112.875 C 521.707031 113.441406 521.945312 115.222656 521.628906 116.421875 C 521.28125 117.753906 520.9375 119.105469 520.367188 120.347656 C 519.355469 122.558594 519.617188 123.378906 521.648438 124.761719 C 522.519531 125.359375 523.175781 126.335938 523.792969 127.230469 C 527.070312 132.003906 531.933594 134.109375 537.296875 135.460938 C 541.527344 136.53125 545.738281 137.683594 549.941406 138.867188 C 551.605469 139.335938 553.347656 139.765625 554.808594 140.628906 C 555.753906 141.191406 556.707031 142.429688 556.886719 143.496094 C 557.738281 148.550781 558.664062 153.636719 558.929688 158.746094 C 559.296875 165.8125 559.257812 172.917969 559.078125 179.996094 C 558.972656 184.003906 558.621094 188.097656 557.640625 191.964844 C 557.050781 194.285156 554.984375 196.210938 553.699219 198.382812 C 553.265625 199.113281 552.914062 200.082031 552.996094 200.894531 C 553.242188 203.355469 554.070312 205.804688 553.996094 208.238281 C 553.9375 210.207031 552.875 212.140625 552.304688 214.105469 C 552.074219 214.894531 551.691406 215.769531 551.835938 216.523438 C 552.574219 220.476562 553.59375 224.378906 554.246094 228.347656 C 554.660156 230.847656 554.320312 233.480469 554.804688 235.960938 C 556.914062 246.785156 559.203125 257.574219 561.414062 268.382812 C 561.8125 270.339844 562.140625 272.308594 562.519531 274.382812 L 556.171875 276.59375 C 556.589844 280.050781 557.230469 283.472656 557.378906 286.917969 C 557.792969 296.496094 558.148438 306.082031 558.246094 315.664062 C 558.347656 325.535156 558.144531 335.417969 560.300781 345.128906 C 562.238281 353.867188 562.417969 362.765625 562.828125 371.636719 C 563.636719 389.273438 564.175781 406.921875 565.1875 424.546875 C 565.417969 428.617188 567.1875 432.585938 568.089844 436.636719 C 568.621094 439.003906 568.800781 441.449219 569.207031 443.851562 C 569.296875 444.375 569.648438 444.863281 569.929688 445.339844 C 571.519531 448.023438 573.066406 450.738281 574.746094 453.359375 C 576.277344 455.75 577.558594 458.15625 577.035156 461.125 C 576.988281 461.40625 576.996094 461.683594 577.0625 461.957031 C 578.375 466.863281 576.746094 466.691406 572.71875 467.410156 C 567.121094 468.414062 561.808594 467.3125 557.433594 463.199219 C 556.136719 461.980469 555.574219 460.738281 556.015625 458.964844 C 556.609375 456.554688 556.042969 455.707031 553.605469 454.9375 C 549.921875 453.773438 548.5 451.445312 548.132812 447.53125 C 547.949219 445.59375 546.6875 443.75 545.871094 441.886719 C 545.097656 440.132812 543.949219 438.480469 543.519531 436.65625 C 542.1875 430.988281 540.921875 425.292969 539.996094 419.554688 C 538.46875 410.097656 537.167969 400.605469 535.878906 391.113281 C 534.515625 381.078125 533.3125 371.019531 531.972656 360.976562 C 530.625 350.867188 529.65625 340.671875 527.671875 330.683594 C 525.867188 321.597656 522.933594 312.738281 520.472656 303.78125 C 519.738281 301.113281 518.925781 298.46875 518.148438 295.808594 Z M 517.492188 295.855469 " fill-opacity="1" fill-rule="nonzero"/></g><path fill="#737373" d="M 571.332031 203.726562 L 571.332031 207.691406 L 570.421875 206.964844 C 570.609375 207.710938 570.746094 208.246094 570.882812 208.78125 L 570.238281 208.9375 C 569.089844 203.996094 567.742188 199.089844 566.828125 194.105469 C 565.277344 185.605469 568.730469 178.167969 572.3125 170.824219 C 573.585938 168.210938 574.976562 165.644531 576.40625 163.109375 C 579.117188 158.285156 579.003906 152.816406 580.109375 147.617188 C 581.519531 140.976562 582.945312 134.320312 584.84375 127.8125 C 586.851562 120.925781 591.222656 116.082031 598.238281 113.546875 C 602.015625 112.179688 605.65625 111.1875 609.578125 112.113281 C 614.160156 113.195312 617.761719 115.667969 620.09375 119.902344 C 624.207031 127.382812 625.914062 135.46875 625.976562 143.898438 C 626.015625 149.726562 627.8125 154.449219 632.25 158.46875 C 634.105469 160.148438 634.917969 163.066406 635.96875 165.523438 C 637.003906 167.9375 638.082031 168.800781 640.5625 168 C 643.886719 166.925781 646.457031 167.851562 648.882812 170.164062 C 652.753906 173.859375 655.316406 177.90625 654.066406 183.613281 C 653.539062 186.019531 653.40625 188.550781 653.40625 191.023438 C 653.410156 193.65625 653.789062 196.285156 654.003906 198.917969 C 654.21875 201.546875 654.410156 204.179688 654.648438 206.808594 C 655.292969 213.894531 655.542969 220.976562 653.472656 227.886719 C 652.804688 230.117188 651.707031 232.230469 650.648438 234.320312 C 649.832031 235.945312 648.285156 236.308594 646.5625 236.179688 C 645.039062 236.0625 643.511719 235.980469 641.984375 235.972656 C 640.054688 235.964844 638.960938 237.496094 639.457031 239.324219 C 642.539062 250.683594 645.871094 261.988281 648.582031 273.4375 C 650.304688 280.714844 649.8125 288.21875 648.558594 295.589844 C 646.667969 306.730469 644.660156 317.851562 642.695312 328.984375 C 642.46875 330.28125 642.179688 331.570312 641.921875 332.863281 C 641.503906 334.949219 640.066406 335.660156 638.144531 334.617188 C 637.1875 334.097656 636.355469 333.351562 635.195312 332.507812 C 635.050781 334.484375 634.929688 336.234375 634.796875 337.984375 C 634.378906 343.519531 633.796875 349.050781 633.578125 354.59375 C 633.351562 360.214844 633.433594 365.847656 633.476562 371.476562 C 633.523438 377.585938 632.085938 383.4375 630.636719 389.300781 C 629.96875 391.992188 629.382812 394.707031 628.644531 397.382812 C 627.171875 402.722656 625.726562 408.078125 624.078125 413.367188 C 622.144531 419.554688 620.445312 425.753906 621.105469 432.332031 C 621.164062 432.9375 621.199219 433.914062 621.535156 434.0625 C 623.683594 435.019531 622.105469 436.152344 621.761719 437.1875 C 621.597656 437.679688 620.96875 438.144531 621.019531 438.5625 C 621.648438 443.679688 620.515625 448.871094 622.179688 453.992188 C 623.492188 458.027344 623.496094 462.328125 620.957031 466.09375 C 620.289062 467.085938 619.054688 468.238281 618 468.324219 C 614.75 468.582031 611.507812 468.542969 608.269531 468.203125 C 607.152344 468.085938 606.167969 466.738281 604.957031 465.832031 C 602.75 468.492188 599.363281 467.828125 596.15625 467.460938 C 591.535156 466.925781 589.269531 463.964844 589.386719 459.144531 C 589.539062 453.105469 592.074219 447.691406 593.804688 442.066406 C 594.578125 439.550781 595.328125 437.023438 595.953125 434.472656 C 596.058594 434.039062 595.601562 433.285156 595.183594 432.949219 C 593.800781 431.828125 593.789062 430.1875 595.195312 429.023438 C 595.535156 428.695312 595.703125 428.292969 595.699219 427.824219 C 595.5 424.660156 595.53125 421.445312 594.925781 418.359375 C 593.625 411.703125 591.972656 405.113281 590.484375 398.492188 C 589.253906 393.011719 587.519531 387.574219 586.984375 382.023438 C 586.363281 375.660156 586.355469 369.292969 586.957031 362.925781 C 587.667969 355.5 587.097656 348.234375 586.152344 340.929688 C 585.933594 339.226562 585.707031 337.523438 585.457031 335.609375 L 580.089844 336.105469 C 580.269531 333.320312 580.457031 330.730469 580.601562 328.136719 C 580.695312 326.433594 580.9375 324.703125 580.742188 323.023438 C 579.914062 315.84375 578.90625 308.679688 578.042969 301.5 C 577.4375 296.472656 576.5 291.429688 576.523438 286.394531 C 576.554688 278.847656 577.535156 271.308594 577.6875 263.757812 C 577.875 254.242188 581.558594 245.648438 584.160156 236.757812 C 584.511719 235.550781 584.519531 234.625 583.890625 233.332031 C 583.101562 231.714844 583.238281 229.648438 582.941406 227.535156 L 578.347656 225.03125 C 577.992188 226.667969 578.664062 229.785156 574.480469 227.976562 C 574.480469 226.816406 574.304688 225.242188 574.53125 223.730469 C 574.761719 222.195312 575.394531 220.726562 575.898438 219.054688 L 571.160156 222.003906 L 570.683594 221.457031 L 575.035156 215.941406 L 573.339844 214.511719 L 575.707031 213.105469 C 574.46875 209.964844 573.210938 206.78125 571.953125 203.597656 Z M 608.183594 431.757812 C 609.316406 428.816406 611.226562 425.691406 611.621094 422.386719 C 612.273438 416.992188 612.460938 411.421875 611.90625 406.027344 C 610.664062 394.011719 610.058594 382.09375 612.542969 370.160156 C 613.390625 366.089844 614.035156 361.941406 613.011719 357.769531 C 611.710938 352.457031 611.445312 347.101562 611.792969 341.636719 C 612.015625 338.140625 611.546875 334.597656 611.386719 331.078125 L 610.582031 330.96875 C 610.445312 331.59375 610.230469 332.210938 610.1875 332.84375 C 609.601562 340.804688 609.363281 348.804688 608.386719 356.714844 C 607.527344 363.664062 607.03125 370.492188 608.359375 377.429688 C 609.25 382.058594 609.832031 386.757812 608.878906 391.5 C 608.179688 394.964844 607.601562 398.457031 606.96875 401.933594 C 605.75 408.65625 605.054688 415.429688 605.925781 422.226562 C 606.339844 425.449219 607.414062 428.589844 608.183594 431.757812 Z M 606.136719 453.464844 C 607.78125 450.589844 607.964844 444.765625 606.75 442.824219 C 606.535156 446.515625 606.335938 449.988281 606.136719 453.460938 Z M 606.136719 453.464844 " fill-opacity="1" fill-rule="nonzero"/><path fill="#737373" d="M 407.566406 437.464844 C 406.867188 438.859375 406.457031 439.773438 405.957031 440.636719 C 405.742188 441.011719 405.375 441.5 405.027344 441.542969 C 404.730469 441.578125 404.207031 441.117188 404.058594 440.757812 C 402.574219 437.175781 401.054688 433.597656 399.765625 429.941406 C 399.410156 428.933594 399.613281 427.621094 399.871094 426.515625 C 400.8125 422.457031 402.214844 418.476562 402.820312 414.371094 C 403.535156 409.636719 403.859375 404.875 403.792969 400.085938 C 403.648438 392.519531 402.996094 384.964844 402.59375 377.402344 C 402.507812 375.816406 402.582031 374.21875 402.167969 372.523438 C 401.441406 376.484375 400.746094 380.449219 399.972656 384.402344 C 399.066406 389.007812 398.160156 393.617188 397.113281 398.191406 C 396.527344 400.753906 395.703125 403.269531 394.902344 405.777344 C 393.585938 409.886719 394.234375 414.027344 394.511719 418.179688 C 394.941406 424.566406 395.191406 430.964844 395.675781 437.347656 C 395.886719 440.125 396.609375 442.859375 396.871094 445.636719 C 397.179688 448.949219 397.492188 452.292969 397.34375 455.601562 C 397.1875 459.007812 394.441406 461.082031 391.078125 460.871094 C 384.382812 460.457031 381.046875 457.054688 380.234375 449.808594 C 379.839844 446.28125 380.5 442.976562 381.785156 439.644531 C 382.820312 436.972656 383.203125 434.046875 383.820312 431.21875 C 383.882812 430.921875 383.503906 430.546875 383.429688 430.191406 C 383.316406 429.644531 383.0625 428.703125 383.265625 428.578125 C 385.339844 427.300781 384.269531 425.34375 384.28125 423.746094 C 384.328125 416.148438 382.929688 408.730469 381.425781 401.304688 C 380.328125 395.875 379.753906 390.328125 379.175781 384.808594 C 378.566406 378.957031 380.082031 373.378906 381.863281 367.863281 C 384.148438 360.796875 383.496094 353.570312 382.746094 346.378906 C 382.613281 345.121094 381.320312 344.023438 380.996094 342.738281 C 380.40625 340.394531 380.058594 337.980469 379.753906 335.578125 C 378.617188 326.5625 377.09375 317.570312 376.5625 308.519531 C 375.941406 297.992188 376.167969 287.417969 376.128906 276.863281 C 376.121094 274.027344 376.480469 271.191406 376.679688 268.191406 C 376.140625 268.035156 375.566406 267.871094 374.992188 267.699219 C 373.65625 267.292969 373 266.488281 373.425781 265.042969 C 376.101562 255.960938 377.433594 246.632812 378.609375 237.273438 C 378.859375 235.28125 379.089844 233.265625 379.570312 231.324219 C 380.621094 227.0625 378.902344 223.460938 377.195312 219.785156 C 376.476562 218.238281 376.15625 216.515625 375.589844 214.894531 C 375.050781 213.347656 374.53125 211.78125 373.816406 210.316406 C 371.445312 205.460938 368.773438 200.734375 366.667969 195.769531 C 365.785156 193.691406 365.980469 191.136719 365.78125 188.792969 C 365.496094 185.417969 365.550781 181.992188 365.011719 178.664062 C 364.148438 173.367188 365.761719 169.214844 370 166.074219 C 371.386719 165.046875 371.9375 164.097656 371.730469 162.191406 C 371.492188 159.980469 372.132812 157.664062 372.460938 155.402344 C 372.980469 151.839844 373.476562 148.269531 374.125 144.726562 C 375.773438 135.734375 377.179688 126.644531 380.890625 118.210938 C 384.128906 110.855469 389.78125 106.261719 397.882812 105.105469 C 403.140625 104.355469 407.230469 106.65625 410.792969 110.324219 C 415.535156 115.207031 417.074219 121.34375 418.351562 127.769531 C 420.035156 136.265625 420.320312 144.714844 419.082031 153.25 C 418.742188 155.585938 418.429688 157.921875 418.078125 160.25 C 417.929688 161.226562 418.101562 161.914062 419.257812 161.96875 C 419.464844 161.996094 419.667969 162.042969 419.867188 162.109375 C 424.890625 163.328125 428.691406 165.730469 431.546875 170.488281 C 435.5625 177.179688 440.625 183.242188 445.238281 189.578125 C 446.574219 191.414062 447.78125 193.363281 449.261719 195.078125 C 450.914062 197 453.097656 198.511719 454.515625 200.570312 C 455.847656 202.496094 456.757812 204.832031 457.351562 207.121094 C 457.972656 209.507812 458.144531 212.046875 458.234375 214.527344 C 458.324219 217.0625 457.164062 219.011719 454.851562 220.292969 C 452.011719 221.863281 449.335938 223.742188 446.433594 225.183594 C 442.972656 226.90625 439.355469 228.308594 435.285156 230.074219 C 435.785156 233.058594 436.101562 236.359375 436.925781 239.535156 C 438.488281 245.566406 440.394531 251.507812 442.011719 257.523438 C 442.199219 258.214844 441.546875 259.195312 441.128906 259.960938 C 440.917969 260.339844 440.382812 260.570312 439.960938 260.804688 C 438.890625 261.40625 437.164062 261.75 436.867188 262.605469 C 436.4375 263.84375 437.0625 265.4375 437.183594 266.886719 C 437.828125 274.421875 439.082031 281.976562 438.90625 289.496094 C 438.742188 296.4375 437.128906 303.359375 435.964844 310.257812 C 435.308594 314.152344 434.117188 317.953125 433.460938 321.84375 C 433.105469 323.933594 433.140625 326.15625 433.40625 328.269531 C 433.902344 332.207031 432.207031 334.753906 428.972656 336.683594 C 428.1875 337.152344 427.511719 338.082031 427.160156 338.949219 C 426.140625 341.449219 425.421875 344.070312 424.386719 346.5625 C 422.714844 350.582031 422.296875 354.765625 422.585938 359.023438 C 423.394531 370.828125 422.085938 382.402344 419.726562 393.984375 C 418.113281 401.914062 417.5 410.050781 416.574219 418.113281 C 416.039062 422.792969 418.894531 426.5625 420.386719 430.683594 C 420.871094 431.992188 421.511719 433.214844 422.3125 434.355469 C 423.089844 435.476562 423.640625 436.566406 425.570312 436.847656 C 427.109375 437.070312 428.550781 439.222656 429.664062 440.78125 C 430.851562 442.453125 431.78125 444.371094 432.515625 446.300781 C 433.941406 450.042969 431.679688 453.308594 427.667969 453.617188 C 423.582031 453.9375 420.386719 452.039062 417.652344 449.355469 C 415.839844 447.574219 414.410156 445.402344 412.765625 443.441406 C 411.175781 441.554688 409.527344 439.714844 407.566406 437.464844 Z M 407.566406 437.464844 " fill-opacity="1" fill-rule="nonzero"/><g clip-path="url(#e43a111329)"><path fill="#ffffff" d="M 689.253906 499.058594 C 689.472656 495.230469 689.695312 491.398438 689.929688 487.328125 C 691.265625 489.472656 691.066406 495.890625 689.253906 499.058594 Z M 689.253906 499.058594 " fill-opacity="1" fill-rule="nonzero"/></g></svg>