<svg xmlns="http://www.w3.org/2000/svg" xmlns:xlink="http://www.w3.org/1999/xlink" width="1366" zoomAndPan="magnify" viewBox="0 0 1024.5 576" height="768" preserveAspectRatio="xMidYMid meet" version="1.0"><defs><clipPath id="6ed1554aaa"><path d="M 0 0.140625 L 1024 0.140625 L 1024 575.859375 L 0 575.859375 Z M 0 0.140625 " clip-rule="nonzero"/></clipPath><clipPath id="aaea021865"><path d="M 1 136 L 324.589844 136 L 324.589844 462 L 1 462 Z M 1 136 " clip-rule="nonzero"/></clipPath><clipPath id="9d06869b9f"><path d="M 118 111.480469 L 197 111.480469 L 197 225 L 118 225 Z M 118 111.480469 " clip-rule="nonzero"/></clipPath></defs><g clip-path="url(#6ed1554aaa)"><path fill="#ffffff" d="M 0 0.140625 L 1024 0.140625 L 1024 575.859375 L 0 575.859375 Z M 0 0.140625 " fill-opacity="1" fill-rule="nonzero"/></g><g clip-path="url(#aaea021865)"><path fill="#231f20" d="M 315.765625 244.214844 C 304.257812 208.914062 280.203125 177.855469 248.90625 157.894531 C 241.003906 152.855469 232.722656 148.554688 224.050781 144.992188 C 215.382812 141.433594 206.46875 138.667969 197.308594 136.699219 C 199.183594 143.753906 197.792969 151.066406 197.46875 158.214844 C 206.199219 160.058594 214.507812 163.488281 222.589844 167.144531 C 240.050781 175.527344 255.890625 187.398438 268.5 202.121094 C 271.957031 206.003906 274.902344 210.304688 278.164062 214.351562 C 272.800781 214.089844 267.5625 212.765625 262.550781 210.953125 C 258.800781 209.59375 255.339844 207.460938 251.785156 205.746094 C 246.03125 208.816406 239.984375 211.40625 233.617188 212.863281 C 229.929688 213.640625 226.148438 214.640625 222.363281 214.089844 C 222.882812 214.804688 223.398438 215.644531 224.273438 215.9375 C 227.570312 217.199219 231.222656 216.90625 234.683594 216.808594 C 236.558594 216.777344 237.882812 215.386719 239.304688 214.382812 C 240.953125 214.902344 242.375 215.96875 244.027344 216.550781 C 245.675781 217.132812 248.390625 217.328125 250.589844 217.457031 C 250.75 244.179688 250.621094 270.90625 250.6875 297.628906 L 250.070312 297.628906 L 250.492188 297.566406 C 250.296875 292 250.621094 286.433594 250.199219 280.871094 C 246.128906 285.917969 243.183594 291.742188 239.726562 297.210938 L 239.273438 297.144531 C 242.730469 291.0625 245.769531 284.625 250.328125 279.253906 C 250.234375 272.78125 250.265625 266.3125 250.199219 259.839844 C 243.765625 256.863281 237.300781 253.886719 230.769531 251.070312 C 230.089844 243.855469 229.832031 236.609375 229.445312 229.363281 C 229.347656 225.414062 228.636719 221.46875 229.378906 217.554688 L 228.023438 217.425781 C 228.28125 221.273438 227.3125 225.027344 226.695312 228.8125 C 225.597656 235.152344 224.335938 241.496094 223.65625 247.902344 C 220.328125 246.476562 216.996094 244.957031 213.699219 243.46875 C 216.828125 247.089844 219.757812 250.867188 222.492188 254.792969 C 223.140625 255.570312 223.042969 256.605469 222.6875 257.511719 C 221.75 255.277344 220.101562 253.433594 218.710938 251.460938 C 216.222656 248.128906 213.667969 244.859375 210.726562 241.917969 C 207.300781 238.421875 204.128906 234.699219 200.703125 231.238281 C 200.542969 234.636719 198.730469 237.613281 197.4375 240.652344 C 193.128906 249.5625 188.6875 258.394531 184.117188 267.152344 C 181.371094 272.199219 179.269531 277.539062 177.039062 282.8125 C 166.078125 309.664062 157.445312 337.394531 147.910156 364.765625 C 144.417969 375.3125 140.246094 385.632812 137.109375 396.308594 C 134.492188 405.011719 132.941406 414.039062 131.742188 423.035156 C 131.875 424.289062 131.691406 425.496094 131.195312 426.65625 C 131 424.585938 131.777344 422.613281 131.839844 420.574219 C 132.550781 413.554688 133.425781 406.5 134.976562 399.609375 C 136.59375 391.585938 138.984375 383.757812 141.183594 375.894531 C 142.378906 372.140625 140.765625 368.289062 140.148438 364.570312 C 137.003906 348.671875 133.792969 332.789062 130.515625 316.914062 C 128.125 299.894531 126.863281 282.648438 127.152344 265.46875 C 126.960938 263.753906 126.378906 262.136719 125.957031 260.488281 C 124.503906 255.085938 123.242188 249.585938 122.789062 243.988281 C 118.972656 248.710938 114.542969 252.917969 110.632812 257.542969 C 106.722656 262.167969 102.679688 266.085938 99.347656 270.871094 C 102.839844 271.648438 106.429688 272.003906 109.953125 272.8125 C 110.933594 269.996094 112.074219 267.246094 113.378906 264.5625 C 112.539062 266.859375 111.472656 269.09375 110.761719 271.421875 C 110.375 272.394531 110.246094 273.71875 109.082031 274.074219 C 105.007812 275.984375 101.191406 278.410156 97.085938 280.222656 C 108.953125 307.5625 121.042969 334.804688 133.585938 361.820312 C 135.945312 366.800781 138.308594 371.851562 140.441406 376.929688 C 138.566406 373.757812 137.078125 370.394531 135.363281 367.125 C 127.703125 352.664062 119.878906 338.296875 112.703125 323.578125 C 109.113281 316.167969 106.171875 308.46875 103.261719 300.769531 C 100.351562 293.066406 97.34375 286.304688 94.660156 278.960938 C 98.054688 277.636719 100.902344 275.144531 104.457031 274.207031 C 101.742188 273.945312 99.15625 272.910156 96.472656 272.425781 C 98.152344 269.75 100.0625 267.25 102.195312 264.917969 L 101.484375 264.242188 C 97.464844 266.949219 93.316406 269.441406 89.035156 271.714844 C 92.332031 269.382812 95.824219 267.347656 99.316406 265.308594 C 100.253906 264.757812 101.128906 264.015625 102.257812 263.820312 L 102.164062 263.367188 L 102.777344 264.371094 C 105.394531 260.777344 108.789062 257.800781 111.699219 254.46875 C 96.601562 260.132812 81.664062 266.3125 66.535156 271.84375 C 67.441406 286.433594 71.578125 300.507812 75.101562 314.648438 C 70.480469 301.222656 66.566406 287.503906 64.464844 273.460938 C 60.457031 285.886719 57.933594 298.761719 55.800781 311.640625 C 55.316406 313.96875 54.347656 316.265625 52.601562 317.949219 C 51.371094 319.210938 49.789062 320.34375 49.398438 322.1875 C 49.011719 324.03125 50.371094 326.132812 52.019531 327.136719 C 54.574219 328.464844 57.546875 329.109375 59.714844 331.117188 C 57.03125 329.757812 54.152344 328.851562 51.339844 327.75 C 50.597656 329.175781 51.144531 330.761719 51.566406 332.183594 L 50.691406 332.765625 C 50.597656 334.222656 50.335938 335.839844 51.082031 337.199219 C 53.085938 339.980469 56.449219 341.144531 59.195312 342.925781 C 55.058594 342.148438 50.789062 341.210938 46.621094 342.34375 C 46.78125 346 46.167969 349.621094 46.132812 353.277344 C 53.539062 353.019531 60.910156 354.152344 68.214844 355.253906 C 61.296875 354.992188 54.347656 354.3125 47.394531 354.863281 C 46.132812 354.863281 46.167969 356.449219 45.910156 357.355469 C 45.648438 358.261719 46.8125 358.90625 47.558594 359.328125 C 46.847656 359.75 45.875 360.039062 45.488281 360.847656 C 44.9375 362.175781 44.875 363.632812 44.648438 365.054688 C 40.832031 357.839844 37.4375 350.367188 34.851562 342.632812 C 27.804688 321.894531 26.027344 299.570312 28.613281 277.925781 C 30.300781 265.203125 33.695312 252.949219 38.796875 241.171875 C 49.398438 216.292969 67.699219 194.808594 90.363281 180.085938 C 99.996094 173.941406 110.339844 168.796875 121.300781 165.429688 C 121.125 164.570312 120.878906 163.726562 120.558594 162.90625 L 118.8125 163.394531 C 91.589844 172.679688 67.503906 190.863281 50.917969 214.351562 C 47.550781 219.101562 44.488281 224.042969 41.726562 229.171875 C 38.96875 234.300781 36.535156 239.578125 34.425781 245.007812 C 32.316406 250.4375 30.546875 255.976562 29.121094 261.625 C 27.695312 267.273438 26.617188 272.988281 25.894531 278.765625 C 22.4375 308.402344 27.738281 339.332031 42.449219 365.410156 C 51.664062 381.523438 63.59375 396.210938 78.238281 407.664062 C 92.882812 419.117188 110.699219 428.40625 129.285156 433.160156 C 161.097656 441.441406 195.949219 437.59375 225.082031 422.320312 C 238.65625 415.207031 250.746094 406.117188 261.355469 395.046875 C 279.554688 375.828125 292.648438 351.660156 298.015625 325.679688 C 302.15625 305.070312 301.929688 283.554688 296.886719 263.109375 C 294.945312 255.066406 292.332031 247.25 289.054688 239.65625 C 285.777344 232.0625 281.878906 224.804688 277.359375 217.878906 C 276.742188 216.582031 275.222656 217.035156 274.09375 217.101562 C 274.707031 218.296875 275.417969 219.429688 276.128906 220.59375 C 290.871094 243.953125 299.050781 271.617188 298.308594 299.28125 C 298.199219 308.5625 297.164062 317.738281 295.203125 326.8125 C 294.136719 332.441406 292.292969 337.910156 290.675781 343.378906 C 286.605469 347.777344 281.65625 351.304688 277.035156 355.058594 C 271.761719 359.054688 266.824219 363.433594 262.226562 368.195312 C 269.144531 359.167969 278.554688 352.5 286.796875 344.769531 C 289.222656 342.503906 291.613281 339.820312 292.195312 336.421875 C 292.875 332.3125 292.457031 327.945312 290.644531 324.160156 C 286.832031 316.105469 283.304688 307.886719 280.136719 299.570312 L 279.910156 298.957031 C 281.636719 298.867188 283.351562 298.675781 285.050781 298.375 C 287.703125 298.082031 290.515625 297.628906 292.746094 295.980469 C 293.976562 295.136719 294.492188 293.683594 294.976562 292.355469 C 293.199219 292.550781 291.390625 292.582031 289.609375 292.613281 C 290.289062 291.613281 291.324219 290.609375 291.226562 289.28125 C 291.257812 288.816406 291.203125 288.359375 291.070312 287.914062 C 290.933594 287.46875 290.726562 287.058594 290.445312 286.6875 C 290.164062 286.316406 289.824219 286.007812 289.429688 285.757812 C 289.035156 285.507812 288.613281 285.335938 288.15625 285.238281 C 286.117188 276.859375 284.210938 268.480469 282.367188 260.066406 C 279.683594 248.710938 277.132812 237.320312 274.546875 225.964844 C 273.703125 223.167969 273.347656 220.308594 273.476562 217.390625 L 271.828125 217.261719 C 272.574219 219.949219 272.476562 222.761719 272.605469 225.511719 C 273.867188 245.570312 274.804688 265.664062 276.421875 285.691406 C 274.414062 280.613281 273.316406 275.175781 270.859375 270.257812 C 269.5 267.410156 265.914062 265.824219 262.972656 267.054688 C 260.027344 268.285156 257.894531 270.582031 255.957031 272.976562 C 255.40625 273.71875 254.53125 274.335938 254.5 275.335938 C 254.339844 274.398438 254.273438 273.429688 253.886719 272.554688 C 253.984375 254.210938 253.949219 235.867188 253.917969 217.519531 C 257.441406 217.457031 260.515625 215.742188 263.683594 214.511719 C 265.074219 215.289062 266.171875 216.648438 267.886719 216.746094 C 271.667969 217.035156 275.578125 217.164062 279.234375 216.03125 C 294.363281 239.101562 302.996094 266.441406 303.640625 294.039062 C 303.792969 305.070312 302.734375 315.984375 300.472656 326.78125 C 294.265625 355.414062 279.039062 381.847656 257.894531 402.035156 C 247.207031 412.089844 235.242188 420.289062 222.007812 426.625 C 189.421875 442.445312 150.464844 444.226562 116.484375 431.832031 C 107.125 428.445312 98.226562 424.109375 89.785156 418.832031 C 81.34375 413.554688 73.550781 407.449219 66.40625 400.515625 C 54.28125 388.964844 44.355469 375.183594 36.886719 360.167969 C 27.351562 340.855469 22.46875 319.339844 22.273438 297.824219 C 22.242188 294.835938 22.300781 291.851562 22.453125 288.871094 C 22.601562 285.886719 22.847656 282.910156 23.183594 279.945312 C 23.519531 276.976562 23.949219 274.023438 24.472656 271.082031 C 24.992188 268.140625 25.605469 265.21875 26.308594 262.316406 C 27.011719 259.414062 27.804688 256.535156 28.6875 253.679688 C 29.570312 250.828125 30.539062 248.003906 31.597656 245.210938 C 32.65625 242.421875 33.800781 239.664062 35.03125 236.941406 C 36.261719 234.21875 37.574219 231.539062 38.972656 228.902344 C 40.371094 226.261719 41.847656 223.667969 43.40625 221.121094 C 44.964844 218.574219 46.601562 216.078125 48.316406 213.632812 C 50.03125 211.1875 51.820312 208.800781 53.683594 206.46875 C 55.546875 204.132812 57.480469 201.859375 59.488281 199.648438 C 61.492188 197.4375 63.5625 195.289062 65.703125 193.203125 C 67.839844 191.121094 70.042969 189.105469 72.308594 187.160156 C 74.570312 185.214844 76.894531 183.34375 79.273438 181.542969 C 81.65625 179.742188 84.089844 178.015625 86.578125 176.367188 C 96.828125 169.574219 108.046875 164.394531 119.621094 160.351562 C 119.101562 157.988281 118.199219 155.691406 117.90625 153.265625 C 117.519531 150.226562 117.679688 147.152344 117.390625 144.109375 C 117.234375 142.417969 117.234375 140.722656 117.390625 139.03125 C 112.476562 140.488281 107.625 142.199219 102.875 144.109375 C 72.386719 156.40625 46.265625 178.632812 28.289062 206.101562 C 19.875 219.046875 13.421875 232.902344 8.921875 247.675781 C 1.777344 271.132812 0 296.140625 3.425781 320.40625 C 5.054688 331.429688 7.730469 342.191406 11.445312 352.695312 C 23.664062 386.925781 47.332031 417.015625 78.042969 436.429688 C 81.886719 438.867188 85.824219 441.132812 89.863281 443.230469 C 93.898438 445.332031 98.019531 447.253906 102.21875 448.996094 C 106.421875 450.742188 110.691406 452.304688 115.027344 453.683594 C 119.363281 455.0625 123.746094 456.25 128.1875 457.253906 C 132.625 458.253906 137.09375 459.0625 141.601562 459.679688 C 146.109375 460.296875 150.632812 460.722656 155.179688 460.949219 C 159.722656 461.179688 164.265625 461.210938 168.8125 461.050781 C 173.359375 460.890625 177.890625 460.53125 182.40625 459.980469 C 208.429688 456.941406 233.519531 446.976562 254.757812 431.703125 C 263.980469 425.101562 272.429688 417.625 280.109375 409.277344 C 287.789062 400.929688 294.53125 391.882812 300.34375 382.136719 C 314.894531 357.742188 323.589844 329.660156 324.074219 301.15625 C 324.589844 281.875 321.875 262.492188 315.765625 244.214844 Z M 241.40625 213.378906 C 244.445312 212.441406 247.257812 210.953125 250.328125 210.113281 C 250.394531 211.890625 250.460938 213.671875 250.425781 215.449219 C 247.269531 215.421875 244.261719 214.734375 241.40625 213.378906 Z M 73.777344 318.855469 C 74.585938 320.925781 75.75 322.867188 76.234375 325.035156 C 73.128906 318.53125 69.023438 312.1875 68.28125 304.875 C 69.863281 309.632812 71.871094 314.226562 73.777344 318.855469 Z M 94.855469 403.621094 C 96.632812 408.734375 98.054688 413.941406 99.769531 419.085938 C 91.6875 414.265625 83.667969 409.28125 76.652344 402.972656 C 77.171875 399.285156 76.75 395.5 77.558594 391.84375 C 78.367188 388.1875 81.601562 384.566406 83.121094 380.683594 C 83.929688 378.675781 84.703125 376.605469 85.15625 374.46875 C 84.511719 369.457031 83.703125 364.472656 82.148438 359.652344 C 79.5 351.402344 76.007812 343.410156 72.386719 335.515625 C 69.898438 330.273438 67.277344 325.066406 63.949219 320.277344 C 69.574219 327.296875 73.679688 335.386719 77.816406 343.3125 C 78.917969 345.351562 79.597656 347.617188 80.46875 349.75 C 79.148438 344.234375 78.242188 338.648438 77.753906 332.992188 C 77.300781 327.621094 77.753906 322.21875 78.207031 316.878906 C 78.335938 319.402344 78.011719 321.894531 78.171875 324.417969 C 78.433594 334.675781 81.4375 344.511719 83.539062 354.476562 C 86.613281 369.003906 90.070312 383.464844 93.238281 397.960938 C 93.496094 398.832031 93.59375 399.964844 94.5 400.449219 C 99.800781 404.105469 105.558594 407.277344 109.953125 412.066406 C 112.152344 414.394531 114.125 417.046875 115.253906 420.089844 C 110.957031 412.164062 102.9375 407.148438 94.855469 403.621094 Z M 239.273438 358.324219 C 233.679688 341.566406 236.234375 322.769531 244.445312 307.304688 C 239.953125 318.175781 236.945312 329.820312 237.011719 341.632812 C 236.976562 347.292969 238.011719 352.859375 239.273438 358.359375 Z M 227.988281 226.96875 C 228.734375 230.558594 228.476562 234.25 228.796875 237.902344 C 229.1875 242.078125 229.089844 246.316406 229.671875 250.488281 C 227.957031 249.679688 226.082031 249.164062 224.53125 248.09375 C 225.339844 240.976562 226.859375 233.988281 227.988281 226.96875 Z M 222.816406 264.53125 L 226.375 264.015625 C 225.984375 261.75 223.882812 260.132812 223.625 257.769531 C 225.53125 259.96875 226.566406 262.785156 227.859375 265.339844 C 226.082031 265.921875 224.238281 266.3125 222.429688 266.765625 C 222.558594 265.988281 222.71875 265.242188 222.847656 264.5 Z M 218.613281 284.945312 C 218.128906 285.527344 217.257812 285.238281 216.609375 285.433594 L 216.933594 285.660156 C 216.464844 286.710938 216.066406 287.789062 215.738281 288.894531 L 215.832031 287.859375 L 214.445312 286.402344 C 215.316406 284.273438 216.53125 282.363281 218.097656 280.675781 C 218.066406 282.066406 217.0625 283.523438 217.613281 284.882812 C 218.292969 284.945312 218.292969 283.847656 218.613281 283.425781 C 219.003906 282.230469 219.261719 281 219.679688 279.835938 C 220.285156 279.589844 220.714844 279.167969 220.972656 278.574219 L 220.003906 278.476562 C 219.972656 277.828125 219.972656 277.214844 219.941406 276.566406 C 220.972656 277.09375 221.789062 277.847656 222.398438 278.832031 C 221.6875 281.128906 219.324219 282.585938 218.613281 284.914062 Z M 207.75 268.867188 C 212.320312 267.703125 216.859375 266.429688 221.363281 265.050781 L 221.363281 266.859375 C 218.195312 268.1875 214.894531 269.15625 211.664062 270.386719 C 214.183594 272.039062 216.609375 273.816406 219.035156 275.597656 L 218.871094 276.921875 L 218.292969 277.410156 C 214.636719 274.820312 210.917969 272.296875 207.363281 269.578125 C 206.75 265.664062 205.066406 262.039062 203.773438 258.320312 C 205.3125 261.746094 206.636719 265.25 207.75 268.835938 Z M 145.191406 402.972656 C 144.902344 405.011719 142.996094 406.566406 140.992188 406.664062 C 138.984375 406.757812 137.789062 405.820312 136.625 404.6875 C 137.726562 405.207031 138.757812 405.984375 140.019531 406.015625 C 142.316406 406.210938 144.644531 404.429688 144.902344 402.101562 C 145.160156 400.257812 143.835938 398.671875 142.347656 397.765625 C 140.859375 396.859375 138.757812 397.636719 137.175781 398.414062 L 138.824219 397.117188 C 140.539062 396.792969 142.574219 396.859375 143.640625 398.542969 L 144.417969 398.378906 L 144.546875 398.929688 C 144.742188 400.222656 145.582031 401.550781 145.191406 402.972656 Z M 150.269531 378.09375 C 147.292969 382.300781 144.480469 386.636719 141.347656 390.746094 C 157.574219 365.605469 174.808594 341.113281 192.070312 316.652344 C 196.757812 309.859375 201.769531 303.292969 206.394531 296.433594 C 205.730469 295.296875 205.179688 294.113281 204.746094 292.875 L 209.886719 292.679688 C 210.789062 290.578125 211.761719 288.246094 213.925781 287.113281 C 214.445312 287.4375 214.539062 288.054688 214.703125 288.570312 C 213.574219 289.789062 212.539062 291.085938 211.597656 292.453125 C 212.304688 292.417969 213.007812 292.332031 213.699219 292.195312 C 214.476562 291.289062 214.832031 290.058594 215.574219 289.089844 C 215.113281 290.269531 214.578125 291.410156 213.957031 292.519531 C 210.953125 292.96875 207.882812 292.875 204.84375 292.96875 C 205.554688 294.816406 206.71875 296.625 208.625 297.402344 C 210.53125 298.179688 213.019531 298.40625 215.21875 298.664062 L 213.992188 298.730469 C 212.160156 298.496094 210.347656 298.152344 208.558594 297.695312 C 200.1875 308.953125 192.167969 320.4375 183.859375 331.730469 C 172.707031 347.195312 161.359375 362.53125 150.269531 378.09375 Z M 190.390625 327.296875 C 204.390625 326.035156 218.421875 324.839844 232.386719 323.449219 L 231.773438 326.035156 C 216.933594 327.558594 202.0625 328.59375 187.222656 330.082031 C 188.160156 329.046875 188.742188 327.234375 190.390625 327.296875 Z M 228.34375 417.695312 C 227.667969 413.8125 225.855469 409.832031 227.183594 405.886719 C 228.378906 402.746094 230.542969 400.128906 232.289062 397.28125 C 234.800781 393.363281 236.203125 389.082031 236.492188 384.433594 C 236.785156 379.128906 237.203125 373.789062 238.433594 368.613281 C 231.480469 374.859375 223.171875 379.515625 217.03125 386.667969 C 221.621094 380.132812 227.988281 375.183594 233.875 369.910156 C 236.363281 367.609375 239.144531 365.574219 241.179688 362.824219 C 244.382812 375.019531 249.941406 386.410156 254.855469 397.992188 C 247.03125 405.757812 237.851562 412.066406 228.34375 417.695312 Z M 290.0625 287.988281 C 290.808594 289.574219 290.0625 291.386719 288.609375 292.226562 C 287.1875 291.480469 285.988281 289.992188 286.34375 288.3125 C 286.699219 286.628906 289.675781 286.175781 290.0625 287.988281 Z M 276.355469 272.101562 C 275.449219 257.347656 274.414062 242.59375 273.738281 227.84375 C 277.453125 243.5 281.140625 259.191406 284.664062 274.949219 C 285.503906 278.445312 286.117188 281.96875 287.1875 285.398438 C 286.800781 285.683594 286.46875 286.019531 286.195312 286.410156 C 285.921875 286.804688 285.71875 287.230469 285.585938 287.691406 C 285.457031 288.148438 285.402344 288.617188 285.425781 289.097656 C 285.453125 289.574219 285.554688 290.035156 285.730469 290.480469 C 286.226562 291.203125 286.765625 291.894531 287.347656 292.550781 C 284.113281 292.648438 280.847656 292.453125 277.617188 292.550781 C 277.800781 291.957031 277.84375 291.351562 277.746094 290.738281 C 277.035156 284.527344 276.839844 278.3125 276.355469 272.101562 Z M 253.984375 215.484375 C 253.949219 213.703125 253.949219 211.957031 253.984375 210.175781 C 256.605469 211.457031 259.296875 212.554688 262.066406 213.476562 C 259.453125 214.46875 256.757812 215.140625 253.984375 215.484375 Z M 253.984375 215.484375 " fill-opacity="1" fill-rule="nonzero"/></g><path fill="#231f20" d="M 270.40625 212.570312 C 271.539062 213.507812 273.121094 213.507812 274.480469 213.734375 C 271.957031 210.5 269.535156 207.234375 266.851562 204.125 C 248.714844 182.96875 224.046875 167.277344 196.953125 160.675781 C 196.699219 161.457031 196.523438 162.253906 196.4375 163.070312 C 200.605469 164.363281 204.875 165.398438 208.980469 166.984375 C 233.292969 175.753906 254.792969 191.960938 270.40625 212.570312 Z M 270.40625 212.570312 " fill-opacity="1" fill-rule="nonzero"/><path fill="#231f20" d="M 254.46875 272.652344 C 256.34375 269.546875 259.351562 267.21875 262.679688 265.824219 C 259.898438 264.433594 256.988281 263.238281 254.175781 261.847656 C 254.402344 265.46875 253.886719 269.09375 254.46875 272.652344 Z M 254.46875 272.652344 " fill-opacity="1" fill-rule="nonzero"/><path fill="#231f20" d="M 197.148438 170.996094 C 197.179688 173.488281 197.632812 175.980469 197.730469 178.46875 C 198.503906 174.976562 199.378906 171.222656 198.246094 167.726562 C 197.632812 166.628906 195.402344 165.042969 194.789062 166.984375 L 196.695312 166.984375 L 197.113281 167.503906 L 196.371094 167.597656 C 196.242188 168.730469 197.148438 169.800781 197.148438 170.996094 Z M 197.148438 170.996094 " fill-opacity="1" fill-rule="nonzero"/><g clip-path="url(#9d06869b9f)"><path fill="#231f20" d="M 119.425781 150.546875 C 119.589844 155.757812 121.59375 160.578125 122.851562 165.5625 C 123.5 168.117188 124.566406 170.542969 125.085938 173.132812 C 125.796875 176.269531 127.121094 179.277344 127.476562 182.515625 C 127.609375 182.847656 127.761719 183.167969 127.929688 183.484375 C 127.929688 182.0625 127.21875 180.765625 127.054688 179.375 C 126.441406 175.460938 124.859375 171.546875 125.441406 167.535156 C 125.859375 164.816406 128.15625 163.003906 129.253906 160.578125 C 129.773438 158.796875 128.929688 157.050781 128.382812 155.402344 C 127.242188 152.496094 126.960938 149.507812 127.542969 146.441406 C 129.675781 146.34375 131.839844 146.246094 133.878906 145.566406 C 137.757812 144.433594 141.3125 142.332031 145.289062 141.554688 C 147.261719 141.425781 149.71875 141.84375 150.753906 143.753906 L 149.527344 144.464844 L 149.945312 143.949219 C 148.554688 143.59375 147.164062 143.042969 145.710938 143.269531 C 142.378906 143.785156 139.339844 145.308594 136.269531 146.535156 C 133.976562 147.476562 131.519531 147.894531 129.09375 148.121094 C 129.382812 151.261719 130.355469 154.269531 131.292969 157.277344 C 132.230469 160.285156 132.230469 163.488281 130.710938 166.207031 C 130.09375 167.242188 129.578125 168.765625 128.15625 168.730469 C 127.878906 168.214844 127.511719 167.773438 127.054688 167.40625 C 126.441406 173.066406 128.929688 178.4375 129.320312 184.035156 C 129.578125 188.726562 130.644531 193.289062 131.164062 197.945312 C 131.519531 200.4375 131.648438 203.125 133.167969 205.257812 L 141.894531 217.910156 C 143.15625 219.625 144.289062 221.53125 145.9375 222.925781 C 147.585938 224.316406 148.945312 223.863281 150.464844 223.960938 C 154.148438 223.992188 157.835938 223.894531 161.550781 223.925781 C 163.492188 224.023438 165.496094 224.21875 167.4375 223.765625 C 168.761719 223.441406 169.699219 222.34375 170.605469 221.402344 C 173.160156 218.523438 175.421875 215.449219 177.847656 212.472656 C 180.269531 209.496094 182.792969 206.230469 184.894531 202.863281 C 186.058594 200.988281 187.058594 198.789062 186.738281 196.523438 C 186.414062 194.257812 187.058594 191.636719 187.191406 189.179688 C 187.640625 189.234375 188.050781 189.394531 188.417969 189.664062 L 188.546875 189.761719 C 189.148438 189.960938 189.765625 190.058594 190.398438 190.054688 C 191.03125 190.046875 191.644531 189.933594 192.238281 189.722656 C 192.835938 189.507812 193.378906 189.199219 193.871094 188.804688 C 194.363281 188.40625 194.777344 187.9375 195.109375 187.398438 C 196.792969 184.714844 196.402344 181.414062 196.757812 178.40625 C 197.113281 175.394531 196.242188 171.644531 196.082031 168.277344 C 192.167969 173.035156 191.070312 179.277344 190.519531 185.230469 C 189.90625 183.875 190.003906 182.320312 189.742188 180.898438 C 189.03125 175.753906 191.359375 170.929688 193.816406 166.5625 C 196.566406 160.125 196.113281 152.941406 196.46875 146.082031 C 196.796875 142.167969 196.300781 138.363281 194.980469 134.664062 C 194.011719 132.105469 191.84375 130.292969 189.808594 128.613281 C 187.773438 126.929688 186.027344 126.28125 185.023438 124.308594 C 184.257812 122.867188 183.210938 121.671875 181.886719 120.71875 C 178.363281 118.097656 174.03125 117.09375 169.992188 115.574219 C 165.949219 114.054688 162.585938 112.46875 158.578125 111.949219 C 155.082031 111.578125 151.589844 111.609375 148.101562 112.046875 C 144.871094 112.597656 141.894531 114.019531 138.953125 115.410156 C 135.074219 117.289062 132.648438 120.976562 130.257812 124.375 C 129.382812 125.699219 128.058594 127.027344 128.253906 128.742188 C 126.636719 129.195312 125.925781 130.910156 124.371094 131.492188 C 122.179688 132.738281 120.507812 134.484375 119.363281 136.734375 C 118.519531 139.839844 118.84375 143.140625 119.945312 146.117188 C 118.199219 147.023438 119.492188 149.09375 119.425781 150.546875 Z M 147.070312 138.738281 C 146.066406 138.546875 144.933594 138.835938 144.0625 138.1875 C 144.847656 137.929688 145.652344 137.777344 146.476562 137.730469 C 147.304688 137.6875 148.121094 137.746094 148.929688 137.917969 C 149.738281 138.089844 150.511719 138.363281 151.25 138.738281 C 151.984375 139.113281 152.660156 139.578125 153.277344 140.128906 C 151.269531 139.515625 149.234375 138.835938 147.070312 138.738281 Z M 150.558594 188.144531 C 150.332031 189.761719 149.363281 191.121094 148.976562 192.671875 C 149.332031 194.839844 151.59375 195.910156 153.503906 196.457031 C 151.949219 196.425781 150.238281 196.621094 148.945312 195.683594 C 147.648438 194.742188 147.132812 193.222656 147.8125 191.898438 C 148.71875 190.085938 149.527344 188.207031 149.6875 186.136719 C 150.140625 181.574219 151.335938 177.078125 151.207031 172.484375 L 152.078125 174.039062 C 151.53125 178.730469 151.304688 183.453125 150.558594 188.144531 Z M 170.863281 136.085938 C 170.792969 137.023438 170.550781 137.914062 170.136719 138.761719 C 169.722656 139.605469 169.167969 140.339844 168.472656 140.972656 C 168.890625 139.191406 169.796875 137.511719 169.570312 135.632812 C 169.503906 134.5 168.921875 133.496094 168.4375 132.496094 C 169.765625 133.140625 170.992188 134.46875 170.863281 136.085938 Z M 162.261719 142.167969 C 160.613281 139.515625 158.578125 137.058594 155.863281 135.4375 C 151.496094 132.59375 146.195312 132.074219 141.25 130.941406 C 142.464844 130.699219 143.6875 130.582031 144.925781 130.59375 C 146.164062 130.609375 147.390625 130.75 148.597656 131.019531 C 149.804688 131.289062 150.972656 131.683594 152.097656 132.199219 C 153.226562 132.714844 154.285156 133.339844 155.28125 134.082031 C 158.15625 136.214844 160.777344 138.835938 162.261719 142.167969 Z M 149.460938 126.414062 C 152.144531 126.640625 154.828125 127.414062 157.027344 129 C 155.089844 128.316406 153.101562 127.851562 151.066406 127.601562 C 149.027344 127.351562 146.988281 127.324219 144.945312 127.519531 C 142.898438 127.714844 140.902344 128.128906 138.949219 128.761719 C 136.996094 129.394531 135.132812 130.226562 133.359375 131.265625 C 137.691406 127.449219 143.738281 125.863281 149.460938 126.414062 Z M 141.960938 140 C 137.984375 142.394531 132.390625 141.425781 129.382812 137.929688 C 133.070312 140.292969 137.691406 140.808594 141.960938 140 Z M 141.960938 140 " fill-opacity="1" fill-rule="nonzero"/></g><path fill="#231f20" d="M 155.410156 264.789062 C 154.34375 264.917969 153.632812 263.980469 152.855469 263.398438 L 152.078125 263.203125 C 149.914062 266.539062 147.617188 269.835938 145.9375 273.460938 C 143.058594 280.351562 139.890625 287.148438 136.980469 294.007812 C 136.660156 294.75 136.300781 295.460938 135.945312 296.207031 C 134.070312 300.25 133.78125 304.78125 133.003906 309.117188 C 132.648438 311.671875 131.90625 314.195312 132.292969 316.78125 C 133.488281 322.023438 134.167969 327.394531 135.6875 332.539062 L 135.851562 332.734375 C 135.851562 334.738281 136.527344 336.648438 136.851562 338.621094 C 138.144531 346.613281 139.792969 354.507812 141.214844 362.46875 C 141.796875 365.476562 142.445312 368.484375 142.605469 371.558594 C 143.609375 367.96875 145.128906 364.539062 146.292969 361.011719 C 149.332031 351.109375 153.566406 341.597656 157.027344 331.890625 L 157.121094 332.117188 L 157.542969 331.117188 C 159.386719 325.9375 161.714844 320.957031 163.523438 315.78125 C 163.78125 311.671875 162.976562 307.53125 162.683594 303.421875 C 161.5625 292.636719 160.238281 281.875 158.707031 271.132812 C 157.976562 266.152344 158.234375 261.222656 159.484375 256.347656 C 160.484375 252.429688 158.253906 248.773438 156.832031 245.3125 C 155.410156 244.441406 153.566406 243.726562 151.949219 244.503906 C 149.835938 245.476562 148.132812 246.933594 146.84375 248.871094 C 146.550781 250.132812 147.230469 251.394531 147.554688 252.625 C 148.554688 255.277344 149.265625 258.0625 150.527344 260.617188 C 151.046875 261.78125 152.402344 262.074219 153.40625 262.65625 C 155.085938 263.5625 157.089844 264.144531 158.222656 265.824219 C 157.347656 265.46875 155.3125 266.3125 155.410156 264.789062 Z M 155.410156 264.789062 " fill-opacity="1" fill-rule="nonzero"/><path fill="#231f20" d="M 122.175781 170.027344 C 121.753906 169.25 120.71875 169.605469 120.105469 169.832031 C 119.039062 170.574219 119.265625 172.0625 119.394531 173.195312 C 119.945312 176.5625 120.394531 179.925781 121.332031 183.226562 C 121.980469 185.585938 122.59375 188.078125 124.015625 190.117188 C 124.921875 191.410156 126.507812 191.765625 127.960938 192.027344 C 126.378906 187.335938 126.054688 182.351562 124.566406 177.628906 C 123.757812 175.105469 123.371094 172.417969 122.175781 170.027344 Z M 120.074219 171.222656 C 119.847656 170.445312 120.882812 170.316406 121.332031 169.992188 C 121.527344 174.070312 122.109375 178.113281 122.660156 182.160156 C 121.785156 178.535156 120.394531 174.976562 120.074219 171.222656 Z M 120.074219 171.222656 " fill-opacity="1" fill-rule="nonzero"/><path fill="#231f20" d="M 190.519531 221.113281 C 189.742188 212.601562 188.710938 204.09375 187.867188 195.585938 L 187.773438 195.941406 C 187.382812 197.816406 187.933594 199.855469 187.058594 201.667969 C 185.898438 204.289062 184.054688 206.519531 182.371094 208.816406 C 179.496094 212.441406 176.746094 216.164062 173.835938 219.785156 C 172.222656 221.695312 170.636719 223.832031 168.210938 224.734375 C 164.980469 225.964844 161.457031 225.449219 158.09375 225.222656 C 154.730469 224.996094 150.722656 225.675781 147.035156 225.285156 C 145.679688 225.09375 144.613281 224.121094 143.671875 223.152344 C 141.992188 221.304688 140.636719 219.234375 139.210938 217.199219 C 136.820312 213.671875 134.296875 210.242188 132.035156 206.648438 C 131.875 210.53125 131.519531 214.480469 132.132812 218.363281 C 132.746094 222.246094 134.136719 226.546875 136.433594 230.105469 L 136.820312 230.753906 L 136.171875 231.691406 C 139.660156 235.132812 143.519531 238.085938 147.746094 240.558594 C 149.167969 241.367188 150.851562 240.816406 152.371094 240.945312 C 153.890625 241.074219 156.183594 241.851562 157.898438 242.726562 L 157.800781 243.855469 C 160.808594 241.625 164.269531 240.167969 167.46875 238.261719 C 175.796875 233.410156 183.480469 227.695312 190.519531 221.113281 Z M 190.519531 221.113281 " fill-opacity="1" fill-rule="nonzero"/></svg>