<svg xmlns="http://www.w3.org/2000/svg" xmlns:xlink="http://www.w3.org/1999/xlink" width="1366" zoomAndPan="magnify" viewBox="0 0 1024.5 576" height="768" preserveAspectRatio="xMidYMid meet" version="1.0"><defs><clipPath id="279d308724"><path d="M 0 0.140625 L 1024 0.140625 L 1024 575.859375 L 0 575.859375 Z M 0 0.140625 " clip-rule="nonzero"/></clipPath><clipPath id="b6602b52d9"><path d="M 0 41.105469 L 281.863281 41.105469 L 281.863281 304.980469 L 0 304.980469 Z M 0 41.105469 " clip-rule="nonzero"/></clipPath></defs><g clip-path="url(#279d308724)"><path fill="#ffffff" d="M 0 0.140625 L 1024 0.140625 L 1024 575.859375 L 0 575.859375 Z M 0 0.140625 " fill-opacity="1" fill-rule="nonzero"/></g><g clip-path="url(#b6602b52d9)"><path fill="#1a1a1a" d="M 140.785156 41.105469 L 0.046875 173.148438 L 140.785156 305.1875 L 281.519531 173.148438 Z M 140.785156 300.457031 L 5.097656 173.148438 L 30.621094 149.203125 L 72.941406 109.476562 L 140.785156 45.839844 L 166.308594 69.789062 L 208.628906 109.511719 L 276.472656 173.148438 C 276.472656 173.148438 142.714844 298.667969 140.785156 300.457031 Z M 140.785156 300.457031 " fill-opacity="1" fill-rule="nonzero"/></g><path fill="#1a1a1a" d="M 140.785156 53.519531 L 13.265625 173.148438 L 140.785156 292.777344 L 268.304688 173.148438 Z M 17.683594 173.148438 L 140.785156 57.621094 L 263.886719 173.148438 L 140.785156 288.675781 Z M 17.683594 173.148438 " fill-opacity="1" fill-rule="nonzero"/><path fill="#1a1a1a" d="M 230.050781 192.574219 L 228.964844 192.574219 L 211.292969 149.65625 C 211.644531 149.621094 211.996094 149.480469 212.273438 149.238281 C 212.378906 149.238281 212.484375 149.273438 212.589844 149.273438 C 213.957031 149.273438 214.835938 147.625 214.972656 147.308594 L 215.148438 146.957031 L 214.972656 146.605469 C 214.835938 146.292969 213.957031 144.644531 212.589844 144.644531 C 212.378906 144.644531 212.167969 144.679688 211.960938 144.714844 C 211.679688 144.574219 211.398438 144.46875 211.082031 144.46875 C 210.3125 144.46875 209.644531 144.960938 209.292969 145.765625 C 209.015625 145.765625 208.734375 145.765625 208.417969 145.765625 L 201.160156 145.484375 C 199.371094 142.539062 197.722656 139.945312 196.601562 138.15625 C 193.480469 133.003906 189.238281 128.375 189.238281 126.304688 C 189.238281 123.222656 188.925781 119.363281 188.363281 117.679688 C 187.488281 115.050781 186.152344 111.441406 185.242188 108.214844 C 184.261719 104.707031 182.472656 103.515625 179.703125 102.816406 C 179.175781 102.675781 179.5625 102.394531 180.230469 102.359375 C 181.738281 102.253906 183.140625 102.148438 183.140625 101.097656 C 183.140625 100.289062 182.367188 99.730469 180.71875 99.378906 C 180.542969 98.957031 180.019531 98.574219 178.441406 98.363281 C 178.546875 98.046875 178.617188 97.730469 178.617188 97.414062 C 178.617188 95.839844 176.371094 94.785156 175.917969 94.609375 L 175.566406 94.472656 L 175.214844 94.609375 C 174.757812 94.785156 172.515625 95.839844 172.515625 97.414062 C 172.515625 97.730469 172.585938 98.082031 172.691406 98.363281 C 171.394531 98.539062 170.726562 98.851562 170.515625 99.378906 C 168.832031 99.730469 168.0625 100.289062 168.0625 101.097656 C 168.0625 101.625 168.0625 102.113281 170.691406 102.324219 C 171.113281 102.359375 171.148438 102.710938 170.761719 102.851562 C 170.375 103.027344 170.097656 103.199219 169.886719 103.339844 C 169.007812 104.078125 169.078125 105.9375 169.078125 105.9375 C 169.078125 105.9375 170.867188 105.515625 173.214844 104.8125 C 175.601562 104.113281 175.460938 105.023438 172.410156 105.832031 C 169.359375 106.636719 168.867188 106.742188 167.886719 108.425781 C 166.90625 110.074219 167.886719 111.652344 167.886719 111.652344 C 167.886719 111.652344 169.921875 110.527344 172.761719 109.6875 C 175.566406 108.847656 174.582031 110.003906 172.339844 110.667969 C 170.132812 111.371094 168.027344 112.316406 167.429688 113.230469 C 166.835938 114.140625 168.34375 116.242188 168.34375 116.242188 C 168.34375 116.242188 170.234375 115.226562 172.199219 114.839844 C 174.164062 114.457031 173.390625 115.121094 171.324219 115.683594 C 169.253906 116.242188 168.203125 117.402344 168.0625 118.59375 C 167.921875 119.785156 169.851562 120.554688 171.917969 120.417969 L 171.917969 144.644531 C 168.34375 144.785156 154.457031 145.273438 147.164062 145.554688 C 144.921875 144.609375 142.851562 143.941406 141.730469 143.871094 C 139.941406 143.765625 138.714844 142.785156 138.121094 141.242188 C 138.296875 141.171875 138.402344 141.101562 138.402344 141.101562 L 137.945312 137.773438 C 137.945312 137.773438 137.875 137.773438 137.734375 137.804688 C 137.804688 136.929688 137.980469 136.019531 138.261719 135.070312 C 139.734375 130.164062 138.15625 121.785156 126.375 114.667969 C 114.59375 107.582031 101.9375 112.28125 99.972656 112.949219 C 98.011719 113.648438 93.976562 117.332031 92.398438 117.261719 C 90.824219 117.191406 89.246094 116.59375 87.914062 119.292969 C 86.578125 121.992188 88.578125 125.078125 89.734375 126.480469 C 89.734375 126.480469 90.859375 127.742188 90.925781 126.902344 C 91.066406 125.21875 90.890625 123.570312 94.539062 122.660156 C 96.503906 122.167969 99.484375 122.378906 101.445312 124.167969 C 101.902344 124.589844 106.53125 129.671875 106.984375 136.4375 C 106.738281 136.402344 106.460938 136.335938 106.214844 136.300781 C 105.335938 132.441406 104.847656 129.988281 101.9375 126.027344 C 99.097656 122.132812 93.664062 123.257812 92.46875 124.625 C 91.03125 126.269531 90.996094 129.179688 91.066406 131.707031 C 91.066406 132.230469 91.101562 132.757812 91.101562 133.285156 C 91.03125 133.285156 90.925781 133.25 90.859375 133.25 C 90.648438 133.214844 90.402344 135.5625 89.734375 137.945312 C 89.210938 139.804688 87.84375 141.804688 87.878906 141.839844 C 87.980469 141.875 88.121094 141.945312 88.261719 141.980469 C 87.421875 143.589844 86.613281 145.132812 86.371094 145.484375 C 85.878906 146.152344 86.371094 147.027344 86.371094 147.027344 C 86.371094 147.027344 87.5625 147.378906 88.15625 147.449219 C 88.753906 147.484375 89.628906 147.730469 89.734375 148.429688 C 89.839844 149.132812 88.824219 150.605469 88.824219 150.605469 C 88.824219 150.605469 89.175781 151.234375 89.769531 152.078125 C 90.367188 152.882812 90.296875 152.953125 89.804688 153.480469 C 89.316406 154.003906 89.105469 154.707031 89.839844 155.023438 C 90.578125 155.335938 91.558594 155.96875 91.171875 157.195312 C 90.789062 158.421875 89.175781 162.945312 94.574219 162.246094 C 99.972656 161.542969 102.953125 160.527344 103.796875 163.015625 C 104.671875 165.503906 105.546875 167.1875 105.546875 169.535156 C 105.546875 171.886719 101.269531 174.796875 101.269531 174.796875 C 101.269531 174.796875 99.867188 175.496094 99.621094 174.199219 C 99.378906 172.902344 97.941406 176.339844 96.640625 174.269531 C 95.34375 172.203125 92.75 175.042969 92.75 175.042969 C 92.75 175.042969 92.75 175.355469 92.925781 176.023438 C 94.714844 183.351562 100.183594 192.46875 111.542969 202.179688 C 117.644531 207.367188 121.011719 208.421875 123.007812 208.210938 C 125.007812 208 124.796875 208.839844 123.007812 209.050781 C 121.21875 209.261719 116.871094 210.03125 111.507812 205.019531 C 105.828125 199.691406 92.085938 187.171875 90.613281 177.777344 C 90.121094 174.691406 89.558594 175.390625 89.453125 175.425781 C 88.507812 175.917969 87.703125 176.09375 86.511719 175.882812 C 85.175781 175.636719 83.601562 176.757812 83.808594 177.074219 C 84.054688 177.355469 86.578125 183.597656 88.367188 186.332031 C 90.15625 189.03125 101.234375 202.496094 104.742188 205.964844 C 108.246094 209.472656 110.316406 212.03125 114.769531 220.164062 C 119.222656 228.300781 126.761719 235.628906 134.332031 241.238281 C 141.90625 246.882812 145.9375 248.144531 149.9375 248.777344 C 153.933594 249.40625 155.824219 249.933594 150.496094 249.722656 C 137.839844 249.230469 123.992188 239.90625 115.332031 225.320312 C 110 216.34375 95.90625 200.074219 94.363281 198.183594 C 90.648438 193.695312 83.878906 181.703125 83.425781 179.214844 C 82.96875 176.726562 82.511719 176.621094 81.636719 177.53125 C 80.339844 178.898438 78.585938 180.722656 78.65625 181.003906 L 78.058594 182.542969 C 78.058594 182.542969 77.429688 184.578125 76.726562 185.945312 C 76.027344 187.277344 74.378906 191.203125 73.257812 193.625 C 72.132812 196.042969 69.363281 201.335938 69.609375 202.601562 C 69.820312 203.863281 68.3125 203.441406 68.3125 203.441406 C 68.3125 203.441406 67.191406 204.28125 66.105469 206.140625 C 64.980469 208.035156 62.28125 210.242188 62.28125 210.242188 L 113.367188 258.171875 C 113.367188 258.171875 116.417969 260.136719 121.082031 262.027344 C 133.597656 267.042969 145.378906 263.675781 156.632812 258.558594 C 162.558594 255.859375 161.960938 256.628906 157.332031 259.363281 C 141.941406 268.445312 128.375 266.726562 120.484375 263.746094 C 119.046875 263.1875 118.242188 262.800781 118.242188 262.800781 L 140.785156 283.941406 L 174.550781 252.246094 C 174.550781 252.246094 171.078125 248.914062 170.550781 246.917969 C 170.027344 244.917969 170.304688 243.867188 169.957031 242.394531 C 169.605469 240.921875 169.816406 241.660156 168.589844 242.078125 C 164.207031 243.585938 143.34375 244.078125 132.195312 230.125 C 126.199219 222.621094 128.269531 223.566406 131.144531 226.511719 C 144.222656 239.941406 157.859375 241.519531 167.152344 238.503906 C 167.429688 238.398438 168.484375 236.820312 168.449219 236.011719 C 168.378906 233.066406 168.132812 230.648438 167.429688 228.964844 C 166.730469 227.28125 166.695312 222.933594 166.554688 222.09375 C 166.414062 221.253906 166.484375 212.59375 166.941406 210.699219 C 167.222656 209.472656 166.484375 209.191406 164.484375 209.472656 C 140.398438 212.699219 117.152344 209.929688 100.605469 179.179688 C 98.851562 175.953125 100.953125 175.636719 102.148438 178.128906 C 116.3125 207.121094 140.960938 209.578125 161.644531 208.246094 C 166.097656 207.964844 166.871094 207.332031 166.871094 207.332031 L 167.886719 202.460938 C 167.886719 202.460938 165.992188 199.65625 165.328125 196.953125 C 164.660156 194.253906 165.328125 185.980469 165.890625 179.632812 C 166.0625 177.636719 165.398438 175.988281 166.90625 175.253906 C 172.796875 172.34375 172.902344 170.765625 172.902344 170.765625 C 172.902344 169.710938 171.042969 168.625 169.007812 168.449219 C 165.644531 168.203125 165.222656 166.695312 164.453125 165.996094 C 163.925781 165.503906 163.152344 165.222656 161.714844 165.121094 C 158.386719 164.804688 153.511719 165.820312 150.882812 164.066406 L 150.53125 163.226562 C 153.40625 164.347656 155.964844 164.066406 158.070312 164.066406 C 163.117188 164.066406 166.167969 164.417969 166.449219 166.3125 C 166.589844 167.1875 170.132812 168.132812 172.199219 168.625 C 174.269531 169.117188 174.128906 171.113281 174.128906 171.113281 C 174.128906 171.113281 182.015625 170.90625 182.929688 170.90625 C 183.804688 170.90625 186.503906 169.640625 187.835938 168.203125 C 189.167969 166.730469 188.714844 165.890625 187.382812 166.941406 C 186.050781 167.996094 181.527344 168.484375 177.144531 167.785156 C 172.761719 167.082031 167.78125 164.664062 166.695312 163.613281 C 165.574219 162.558594 160.699219 162.175781 156.246094 161.507812 C 151.792969 160.878906 151.199219 157.40625 149.585938 154.144531 C 148.988281 152.953125 147.445312 151.867188 145.484375 150.882812 L 144.746094 149.097656 C 148.429688 150.882812 151.511719 153.234375 151.617188 155.476562 C 151.792969 159.578125 158.175781 161.15625 161.644531 161.542969 C 165.082031 161.929688 167.640625 162.488281 169.640625 164.242188 C 171.640625 165.996094 177.878906 168.167969 182.542969 167.46875 C 187.207031 166.765625 183.664062 166.628906 180.648438 166.628906 C 178.195312 166.628906 173.988281 164.734375 174.445312 163.050781 C 174.898438 161.367188 170.203125 160 165.75 159.789062 C 159.121094 159.472656 155.40625 157.40625 156.949219 153.445312 C 157.332031 152.425781 156.386719 151.164062 154.808594 149.867188 C 159.332031 150.253906 164.277344 150.675781 168.203125 150.988281 C 168.414062 151.585938 169.183594 152.007812 170.585938 152.320312 C 170.796875 152.8125 171.464844 153.128906 172.761719 153.339844 C 172.65625 153.65625 172.585938 153.96875 172.585938 154.285156 C 172.585938 155.863281 174.828125 156.914062 175.285156 157.089844 L 175.636719 157.230469 L 175.988281 157.089844 C 176.441406 156.914062 178.6875 155.863281 178.6875 154.285156 C 178.6875 153.96875 178.617188 153.65625 178.511719 153.339844 C 180.089844 153.128906 180.613281 152.742188 180.789062 152.320312 C 182.191406 152.007812 182.929688 151.585938 183.140625 150.988281 C 184.820312 150.847656 186.714844 150.710938 188.644531 150.535156 C 191.589844 160.738281 194.847656 170.730469 194.847656 171.078125 C 194.882812 171.746094 192.113281 171.359375 185.3125 171.324219 C 183.070312 171.324219 177.984375 171.5 173.847656 171.605469 C 173.636719 171.605469 172.164062 173.324219 167.117188 176.480469 C 167.046875 176.515625 167.082031 176.621094 167.082031 176.691406 C 166.625 179.738281 166.800781 183.5625 166.484375 187.769531 C 166.167969 192.433594 165.820312 196.113281 167.605469 201.128906 C 168.414062 203.40625 168.554688 200.917969 168.589844 198.636719 C 168.695312 193.871094 172.445312 191.519531 175.320312 190.398438 C 177.179688 189.699219 182.894531 187.875 186.015625 187.277344 C 187.554688 186.960938 189.273438 186.648438 191.027344 186.296875 L 188.433594 192.574219 L 186.960938 192.574219 L 186.960938 193.414062 C 186.960938 195.203125 187.730469 196.851562 189.273438 198.289062 C 192.746094 201.546875 200.109375 203.511719 208.945312 203.511719 C 222.09375 203.511719 230.925781 199.445312 230.925781 193.414062 L 230.925781 192.574219 Z M 115.085938 246.777344 C 90.261719 239.34375 72.800781 208.210938 79.042969 185.664062 C 79.636719 183.527344 80.410156 179.808594 80.304688 186.226562 C 79.707031 224.511719 95.976562 234.050781 113.960938 244.535156 C 125.148438 251.089844 126.445312 250.179688 115.085938 246.777344 Z M 183.453125 131.8125 C 183.910156 132.335938 185.277344 138.296875 187.066406 144.960938 L 178.476562 144.644531 L 178.476562 127.113281 C 180.160156 128.902344 182.542969 130.792969 183.453125 131.8125 Z M 168.972656 101.0625 C 168.972656 100.605469 170.027344 100.222656 171.640625 99.976562 C 171.429688 99.90625 171.324219 99.800781 171.324219 99.695312 C 171.324219 99.378906 172.585938 99.097656 174.304688 98.992188 C 173.742188 98.609375 173.390625 98.011719 173.390625 97.347656 C 173.390625 96.222656 175.566406 95.3125 175.566406 95.3125 C 175.566406 95.3125 177.738281 96.222656 177.738281 97.347656 C 177.738281 98.011719 177.390625 98.609375 176.828125 98.992188 C 178.582031 99.097656 179.878906 99.34375 179.878906 99.695312 C 179.878906 99.800781 179.773438 99.871094 179.5625 99.976562 C 181.175781 100.222656 182.226562 100.605469 182.226562 101.0625 C 182.261719 101.832031 168.972656 101.832031 168.972656 101.0625 Z M 122.832031 117.261719 C 126.832031 118.523438 133.246094 126.691406 130.230469 133.25 C 129.390625 135.105469 129.039062 136.859375 129.074219 138.4375 C 128.652344 138.4375 128.164062 138.402344 127.671875 138.402344 C 127.671875 136.789062 128.058594 134.964844 128.898438 132.828125 C 132.230469 124.273438 123.78125 118.628906 121.117188 117.367188 C 118.414062 116.136719 118.835938 116.035156 122.832031 117.261719 Z M 117.609375 121.363281 C 122.726562 123.78125 122.273438 130.480469 119.921875 137.035156 C 119.78125 137.386719 119.714844 137.738281 119.644531 138.050781 C 119.433594 138.050781 119.1875 138.015625 118.976562 138.015625 C 119.046875 137.703125 119.117188 137.421875 119.1875 137.105469 C 121.359375 128.621094 120.871094 123.605469 116.382812 121.363281 C 113.960938 120.171875 112.492188 118.945312 117.609375 121.363281 Z M 110.84375 128.199219 C 112.628906 129.113281 113.4375 131.179688 113.4375 133.109375 C 113.4375 135.035156 112.734375 137.492188 112.734375 137.492188 L 111.894531 137.246094 C 111.894531 137.246094 112.316406 135.84375 112.59375 133.878906 C 112.875 131.953125 111.859375 129.601562 110.105469 128.726562 C 108.632812 127.917969 109.054688 127.289062 110.84375 128.199219 Z M 98.535156 144.046875 C 95.625 143.695312 88.964844 141.699219 88.964844 141.699219 C 88.964844 141.699219 90.613281 138.085938 90.824219 136.613281 C 91.03125 135.140625 91.417969 133.84375 91.417969 133.84375 C 91.417969 133.84375 101.585938 136.265625 105.722656 136.894531 C 109.859375 137.527344 117.890625 138.71875 125.53125 138.789062 C 133.175781 138.859375 137.488281 138.226562 137.488281 138.226562 L 137.59375 140.890625 C 137.59375 140.890625 133.878906 142.328125 127.566406 143.101562 C 121.253906 143.871094 110.070312 144.574219 107.160156 144.574219 C 104.25 144.539062 101.445312 144.398438 98.535156 144.046875 Z M 134.296875 163.785156 L 133.738281 165.015625 C 133.738281 165.015625 133 163.367188 133.28125 160.910156 C 133.5625 158.457031 131.914062 157.828125 129.984375 158.457031 C 128.058594 159.089844 122.691406 159.613281 123.675781 155.476562 C 124.621094 151.339844 121.464844 150.710938 119.292969 150.464844 C 117.117188 150.21875 116.066406 149.480469 114.699219 148.21875 C 113.332031 146.921875 112.558594 144.925781 112.558594 144.925781 L 113.648438 144.785156 C 113.648438 144.785156 115.296875 148.535156 118.03125 149.167969 C 120.765625 149.796875 126.550781 151.09375 125.042969 154.707031 C 123.535156 158.316406 126.832031 158.84375 129.039062 157.792969 C 131.738281 156.53125 135 157.757812 134.542969 160.632812 C 134.125 163.261719 134.296875 163.785156 134.296875 163.785156 Z M 121.957031 164.207031 C 115.960938 164.945312 116.382812 159.230469 117.714844 157.230469 C 119.046875 155.230469 118.765625 153.269531 115.085938 152.460938 C 112.175781 151.832031 108.738281 149.027344 107.476562 144.996094 C 107.617188 144.996094 107.792969 144.996094 107.933594 144.996094 C 108.074219 144.996094 108.179688 144.996094 108.316406 144.996094 C 109.582031 148.359375 111.753906 150.777344 114.171875 151.480469 C 117.960938 152.601562 121.253906 152.636719 118.800781 157.230469 C 116.347656 161.824219 119.574219 163.753906 122.027344 163.332031 C 124.480469 162.910156 128.617188 163.648438 128.6875 166.03125 C 128.792969 168.695312 129.214844 170.519531 130.6875 171.921875 L 130.40625 172.550781 C 128.6875 171.324219 127.496094 169.363281 127.671875 167.222656 C 127.777344 165.855469 127.953125 163.507812 121.957031 164.207031 Z M 128.058594 149.902344 C 125.324219 149.550781 121.253906 148.078125 119.503906 144.433594 C 119.992188 144.398438 120.484375 144.328125 120.976562 144.292969 C 122.867188 146.957031 126.128906 148.746094 128.40625 149.203125 C 131.738281 149.867188 134.332031 150.183594 137.734375 154.742188 L 137.453125 155.40625 C 134.367188 151.65625 130.898438 150.289062 128.058594 149.902344 Z M 136.15625 147.273438 C 136.15625 147.308594 136.191406 147.378906 136.226562 147.414062 C 135.5625 147.203125 134.964844 147.027344 134.402344 146.851562 C 132.335938 146.222656 130.371094 145.097656 129.109375 143.3125 C 129.425781 143.277344 129.742188 143.242188 130.054688 143.207031 C 130.300781 143.171875 130.511719 143.136719 130.722656 143.136719 C 131.914062 144.644531 133.703125 145.660156 135.769531 145.976562 C 135.980469 146.011719 136.191406 146.046875 136.402344 146.082031 C 136.261719 146.292969 136.15625 146.464844 136.121094 146.570312 L 135.945312 146.921875 Z M 170.585938 171.113281 C 171.882812 171.078125 171.777344 171.5 171.253906 171.570312 C 169.253906 171.886719 166.730469 172.9375 163.785156 174.902344 C 161.644531 176.339844 159.015625 177.144531 156.316406 177.214844 L 155.929688 176.304688 C 159.015625 176.09375 162.101562 174.972656 165.117188 173.324219 C 167.222656 172.203125 169.007812 171.148438 170.585938 171.113281 Z M 156 168.90625 C 157.894531 167.433594 161.085938 168.660156 163.015625 171.042969 C 164.101562 172.378906 165.363281 171.886719 165.679688 171.640625 C 166.027344 171.394531 167.675781 170.941406 165.957031 171.886719 C 164.242188 172.867188 163.046875 172.308594 162.171875 171.253906 C 160.804688 169.503906 158.035156 168.484375 156.738281 169.46875 C 154.84375 170.871094 152.949219 169.992188 152.949219 169.992188 L 152.53125 168.90625 C 152.566406 168.835938 154.074219 170.378906 156 168.90625 Z M 208.980469 202.671875 C 197.339844 202.671875 187.90625 199.199219 187.90625 193.378906 L 189.097656 193.378906 L 207.820312 147.902344 C 203.648438 148.394531 190.222656 149.515625 181.945312 150.21875 C 181.738281 150.21875 181.773438 150.324219 181.910156 150.359375 C 182.15625 150.429688 182.296875 150.5 182.296875 150.570312 C 182.296875 151.023438 181.246094 151.410156 179.632812 151.65625 C 179.84375 151.726562 179.949219 151.832031 179.949219 151.9375 C 179.949219 152.25 178.652344 152.53125 176.898438 152.636719 C 177.425781 153.023438 177.808594 153.621094 177.808594 154.285156 C 177.808594 155.40625 175.636719 156.320312 175.636719 156.320312 C 175.636719 156.320312 173.460938 155.40625 173.460938 154.285156 C 173.460938 153.621094 173.8125 153.023438 174.375 152.636719 C 172.65625 152.53125 171.394531 152.285156 171.394531 151.9375 C 171.394531 151.832031 171.5 151.761719 171.707031 151.65625 C 170.097656 151.410156 169.042969 151.023438 169.042969 150.570312 C 169.042969 150.5 169.183594 150.429688 169.394531 150.359375 C 169.535156 150.324219 169.605469 150.21875 169.429688 150.21875 C 161.121094 149.550781 147.621094 148.394531 143.414062 147.902344 L 162.136719 193.378906 L 163.328125 193.378906 C 163.328125 199.199219 153.898438 202.671875 142.257812 202.671875 C 130.617188 202.671875 121.1875 199.199219 121.1875 193.378906 L 122.902344 193.378906 L 125.21875 187.734375 C 123.992188 187.945312 122.589844 188.050781 121.011719 188.015625 C 111.964844 187.804688 107.265625 184.402344 107.265625 184.402344 L 106.53125 183.140625 C 106.53125 183.140625 112.628906 186.996094 120.730469 187.171875 C 122.589844 187.207031 124.199219 187.03125 125.636719 186.753906 L 141.730469 147.695312 C 141.554688 147.660156 141.382812 147.625 141.242188 147.625 C 141.101562 148.324219 140.644531 148.851562 140.152344 148.851562 C 139.839844 148.851562 139.523438 148.640625 139.3125 148.289062 C 139.101562 148.359375 138.890625 148.429688 138.644531 148.429688 C 137.769531 148.429688 137.066406 146.957031 137.066406 146.957031 C 137.066406 146.957031 137.769531 145.484375 138.644531 145.484375 C 138.925781 145.484375 139.207031 145.554688 139.417969 145.695312 C 139.628906 145.449219 139.839844 145.308594 140.117188 145.308594 C 140.644531 145.308594 141.101562 145.871094 141.242188 146.640625 C 141.695312 146.605469 142.1875 146.605469 142.820312 146.605469 C 143.378906 146.570312 164.660156 145.835938 172.972656 145.519531 L 172.972656 121.257812 L 175.074219 124.589844 L 177.703125 126.796875 L 177.703125 145.449219 C 185.417969 145.765625 207.996094 146.535156 208.558594 146.570312 C 209.15625 146.570312 209.679688 146.605469 210.136719 146.605469 C 210.277344 145.835938 210.695312 145.273438 211.257812 145.273438 C 211.539062 145.273438 211.75 145.414062 211.960938 145.660156 C 212.203125 145.519531 212.449219 145.449219 212.730469 145.449219 C 213.605469 145.449219 214.308594 146.921875 214.308594 146.921875 C 214.308594 146.921875 213.605469 148.394531 212.730469 148.394531 C 212.484375 148.394531 212.273438 148.359375 212.066406 148.253906 C 211.855469 148.605469 211.574219 148.816406 211.222656 148.816406 C 210.695312 148.816406 210.277344 148.289062 210.136719 147.589844 C 209.996094 147.625 209.820312 147.660156 209.644531 147.660156 L 228.472656 193.378906 L 230.191406 193.378906 C 230.050781 199.234375 220.621094 202.671875 208.980469 202.671875 Z M 203.40625 149.238281 C 204.5625 149.132812 205.578125 149.027344 206.453125 148.921875 L 205.085938 152.25 C 204.527344 151.234375 203.964844 150.21875 203.40625 149.238281 Z M 203.40625 149.238281 " fill-opacity="1" fill-rule="nonzero"/><path fill="#1a1a1a" d="M 186.960938 146.886719 C 183.488281 146.746094 179.632812 146.78125 177.5625 146.710938 L 177.5625 149.410156 C 179.738281 149.273438 183.875 148.992188 187.589844 148.746094 C 199.058594 147.972656 200.5625 147.484375 186.960938 146.886719 Z M 186.820312 148.21875 C 185.3125 148.324219 179.808594 148.394531 178.476562 148.464844 L 178.476562 147.554688 L 187.242188 147.660156 C 187.242188 147.660156 187.695312 148.183594 186.820312 148.21875 Z M 186.820312 148.21875 " fill-opacity="1" fill-rule="nonzero"/><path fill="#1a1a1a" d="M 190.535156 193.414062 L 226.929688 193.414062 L 208.734375 149.238281 Z M 191.835938 192.574219 L 194.710938 185.59375 C 201.828125 184.226562 209.191406 182.824219 211.785156 182.441406 C 215.5 181.878906 215.570312 180.054688 214.519531 177.953125 C 213.46875 175.847656 211.714844 171.253906 209.609375 163.050781 C 209.050781 160.84375 208.066406 158.386719 206.910156 155.898438 L 208.699219 151.515625 L 225.597656 192.539062 L 191.835938 192.539062 Z M 191.835938 192.574219 " fill-opacity="1" fill-rule="nonzero"/><path fill="#1a1a1a" d="M 152.636719 147.972656 C 159.683594 148.5 168.238281 149.0625 172.832031 149.339844 L 172.832031 146.710938 C 168.273438 146.851562 159.71875 147.097656 152.777344 147.308594 C 150.636719 147.378906 150.566406 147.800781 152.636719 147.972656 Z M 157.824219 147.625 L 158.734375 147.589844 L 171.953125 147.554688 L 171.953125 148.429688 C 169.992188 148.289062 160.207031 148.007812 157.894531 147.871094 C 157.019531 147.835938 157.824219 147.625 157.824219 147.625 Z M 157.824219 147.625 " fill-opacity="1" fill-rule="nonzero"/><path fill="#1a1a1a" d="M 127.144531 186.296875 C 130.828125 185.070312 133.035156 182.753906 135.175781 180.757812 C 138.367188 177.777344 141.484375 173.464844 141.484375 173.464844 L 142.714844 173.605469 C 142.714844 173.605469 140.082031 177.285156 136.683594 180.546875 C 133.949219 183.140625 131.5625 186.191406 126.691406 187.453125 L 124.234375 193.449219 L 160.628906 193.449219 L 142.433594 149.273438 Z M 152.882812 176.933594 C 151.058594 176.585938 149.234375 175.882812 147.550781 174.832031 C 143.765625 172.480469 138.996094 172.585938 137.066406 173.183594 C 135.769531 173.570312 134.507812 173.953125 133.246094 173.746094 L 133.492188 173.148438 C 135.316406 173.148438 137.035156 172.273438 139.171875 171.886719 C 141.90625 171.394531 146.113281 173.359375 148.113281 174.480469 C 149.550781 175.320312 151.058594 175.847656 152.53125 176.128906 Z M 148.324219 167.679688 C 149.023438 168.90625 150.109375 168.976562 150.109375 168.976562 L 150.390625 169.605469 C 150.390625 169.605469 148.671875 169.363281 147.515625 168.132812 C 146.359375 166.90625 144.851562 166.90625 143.203125 167.679688 C 141.554688 168.449219 140.117188 168.765625 138.820312 168.273438 C 137.523438 167.75 136.332031 167.292969 136.332031 167.292969 L 136.753906 166.453125 C 136.753906 166.453125 139.910156 168.835938 142.117188 167.433594 C 144.289062 166.03125 147.65625 166.453125 148.324219 167.679688 Z M 147.199219 163.121094 C 143.484375 161.894531 141.242188 160.070312 139.734375 158.105469 L 140.011719 157.441406 C 141.730469 159.578125 144.152344 161.050781 146.78125 162.070312 Z M 147.199219 163.121094 " fill-opacity="1" fill-rule="nonzero"/></svg>